<svg width="27" height="27" viewBox="0 0 27 27" fill="none" xmlns="http://www.w3.org/2000/svg">
<path d="M3.44794 0H23.4149C25.3111 0 26.8626 1.3982 26.8626 3.43368V23.3202C26.8626 25.3557 25.3111 26.7539 23.4149 26.7539H3.44794C1.55117 26.7539 0 25.3557 0 23.3202V3.43368C0 1.3982 1.55117 0 3.44794 0ZM19.5684 2.97247C18.9031 2.97247 18.3595 3.51417 18.3595 4.17701V7.05993C18.3595 7.72249 18.9031 8.26447 19.5684 8.26447H22.6046C23.2698 8.26447 23.814 7.72249 23.814 7.05993V4.17701C23.814 3.51417 23.2698 2.97247 22.6046 2.97247H19.5684ZM23.8267 11.3141H21.4624C21.6861 12.0415 21.8072 12.812 21.8072 13.6092C21.8072 18.0593 18.0683 21.6665 13.4569 21.6665C8.84588 21.6665 5.10751 18.0593 5.10751 13.6092C5.10751 12.8115 5.22832 12.0412 5.45228 11.3141H2.98513V22.6153C2.98513 23.2002 3.46559 23.679 4.05308 23.679H22.7593C23.3468 23.679 23.8272 23.2004 23.8272 22.6153V11.3141H23.8267ZM13.4567 8.11256C10.4773 8.11256 8.06175 10.4433 8.06175 13.3188C8.06175 16.1944 10.4773 18.5251 13.4567 18.5251C16.4363 18.5251 18.8521 16.1944 18.8521 13.3188C18.8521 10.4433 16.4365 8.11256 13.4567 8.11256Z" fill="white" fill-opacity="0.5"/>
</svg>
