<svg width="41" height="27" viewBox="0 0 41 27" fill="none" xmlns="http://www.w3.org/2000/svg">
<path d="M38.4658 21.671C37.271 19.9828 35.865 18.5419 34.5347 17.0119C33.3345 15.6328 33.2588 14.8327 34.2236 13.241C35.2766 11.5038 36.409 9.83314 37.4715 8.10373C38.4633 6.48749 39.4772 4.87566 39.9991 2.94048C40.3301 1.70932 40.0374 1.16551 38.9657 0.94995C38.781 0.912226 38.5902 0.910267 38.4022 0.910267L32.0441 0.901448C31.261 0.887731 30.8281 1.28995 30.5512 2.10763C30.1773 3.21288 29.7918 4.31715 29.3464 5.3837C28.3359 7.80194 27.2072 10.1393 25.6249 12.1186C25.276 12.5551 24.89 13.1068 24.307 12.8794C23.5776 12.5659 23.3626 11.15 23.3747 10.6714L23.3684 2.02581C23.227 0.790727 22.9946 0.24006 21.9537 0L15.349 0.00146988C14.4673 0.00146988 14.0253 0.402712 13.5545 1.05234C13.283 1.42762 13.201 1.67111 13.7591 1.79555C14.8553 2.04051 15.4729 2.87631 15.6367 4.17116C15.8996 6.24008 15.8813 8.31733 15.7299 10.3946C15.6854 11.0011 15.5968 11.6061 15.3926 12.1725C15.0732 13.0627 14.5576 13.2439 13.8801 12.6962C13.2667 12.2004 12.8359 11.5008 12.4142 10.7983C10.8302 8.16154 9.56642 5.31806 8.53591 2.33005C8.23816 1.46681 7.72457 0.943581 6.94816 0.929373C5.04061 0.893609 3.13264 0.88773 1.22509 0.931333C0.0773099 0.956809 -0.264943 1.6133 0.202484 2.83907C2.28012 8.28353 4.59272 13.5766 7.61146 18.3984C9.16137 20.8729 10.9408 23.0575 13.2397 24.6056C15.8451 26.3605 18.6496 26.8886 21.6035 26.726C22.9867 26.6496 23.4021 26.2258 23.4661 24.6017C23.5094 23.4906 23.6163 22.3858 24.0816 21.3874C24.5382 20.4075 25.2298 20.2209 26.027 20.8303C26.4258 21.1355 26.7618 21.524 27.0791 21.9336C27.8576 22.937 28.6083 23.9707 29.4163 24.9402C30.4297 26.1552 31.6303 26.873 33.1399 26.7265L38.9836 26.7279C39.9251 26.6554 40.4133 25.2954 39.8727 24.0574C39.493 23.1903 38.9948 22.4181 38.4658 21.671Z" fill="white" fill-opacity="0.5"/>
</svg>
