<svg width="17" height="27" viewBox="0 0 17 27" fill="none" xmlns="http://www.w3.org/2000/svg">
<path d="M6.80251 18.8443C4.70161 18.628 2.80735 18.1172 1.18556 16.865C0.984323 16.7092 0.776562 16.559 0.592925 16.385C-0.116928 15.712 -0.188453 14.9412 0.373242 14.1468C0.853763 13.4671 1.6604 13.2852 2.49883 13.6755C2.66118 13.7512 2.81586 13.8456 2.96402 13.947C5.9865 15.9972 10.1386 16.0538 13.1725 14.0392C13.473 13.8117 13.7943 13.6262 14.1667 13.5315C14.8907 13.348 15.566 13.6105 15.9545 14.2359C16.3984 14.9501 16.3928 15.6473 15.8458 16.2018C15.0068 17.0519 13.9978 17.6669 12.8767 18.0962C11.8166 18.5019 10.6555 18.7062 9.50625 18.8418C9.67967 19.0281 9.76141 19.1198 9.86983 19.2273C11.4303 20.7752 12.9976 22.3165 14.553 23.8691C15.0829 24.3981 15.1936 25.054 14.9018 25.6694C14.5828 26.3418 13.8687 26.7843 13.1685 26.7369C12.7249 26.7066 12.3789 26.4886 12.0715 26.183C10.8939 25.0131 9.69414 23.8649 8.54038 22.6729C8.20462 22.3263 8.04312 22.3919 7.7468 22.6928C6.56211 23.8968 5.35811 25.0823 4.14702 26.2611C3.6032 26.7904 2.95607 26.8857 2.32541 26.5834C1.65501 26.2625 1.22842 25.587 1.26134 24.9081C1.28405 24.4488 1.51281 24.098 1.83212 23.7833C3.37642 22.261 4.91647 20.7348 6.45709 19.21C6.55898 19.1085 6.65407 19.0009 6.80251 18.8443Z" fill="black" fill-opacity="1"/>
<path d="M8.08221 13.5417C4.33426 13.5291 1.26098 10.4617 1.28283 6.75585C1.3044 3.00906 4.37967 -0.0103407 8.16452 2.66177e-05C11.957 0.0101137 15.0011 3.07295 14.9821 6.85869C14.9628 10.557 11.8682 13.5546 8.08221 13.5417ZM11.4884 6.76482C11.4819 4.92477 9.99748 3.4599 8.13727 3.45822C6.26145 3.45626 4.76369 4.94774 4.77817 6.80461C4.79208 8.63766 6.28927 10.0922 8.15458 10.0854C10.0142 10.079 11.4947 8.60459 11.4884 6.76482Z" fill="black" fill-opacity="1"/>
</svg>
