<svg width="33" height="27" viewBox="0 0 33 27" fill="none" xmlns="http://www.w3.org/2000/svg">
<path d="M32.1333 3.18672C32.0872 3.13121 32.0111 3.11237 31.9461 3.14265C30.9844 3.57829 29.9725 3.89147 28.9303 4.07649C30.0367 3.22675 30.8611 2.05002 31.2839 0.700721C31.3043 0.636132 31.2832 0.565488 31.2315 0.523438C31.1794 0.481388 31.1073 0.476006 31.0502 0.510655C29.8041 1.2652 28.4545 1.79705 27.037 2.09207C25.781 0.761273 24.0271 0 22.2119 0C18.5203 0 15.5173 3.06595 15.5173 6.83464C15.5173 7.29046 15.5604 7.74191 15.6461 8.18024C10.533 7.85797 5.75207 5.35179 2.50129 1.28101C2.46801 1.2393 2.4176 1.21609 2.36488 1.22147C2.31249 1.2255 2.2657 1.25578 2.23934 1.30187C1.64625 2.34067 1.3329 3.52917 1.3329 4.73819C1.3329 6.83363 2.26537 8.79282 3.8532 10.0856C3.03573 9.98536 2.23736 9.72263 1.51742 9.31458C1.46899 9.28666 1.40869 9.28699 1.36025 9.31559C1.31182 9.34384 1.28117 9.39632 1.27986 9.45351L1.2792 9.54098C1.2792 12.5504 3.22156 15.1928 5.98502 16.0702C5.25717 16.1899 4.50197 16.1818 3.75962 16.0372C3.70493 16.0268 3.6476 16.0459 3.61003 16.089C3.5728 16.1321 3.56028 16.1923 3.57741 16.2468C4.40609 18.8875 6.70859 20.7394 9.38869 20.9702C7.15308 22.6424 4.51054 23.5234 1.71841 23.5234C1.20407 23.5234 0.686109 23.4922 0.178689 23.4313C0.1062 23.4229 0.0343707 23.4669 0.00932921 23.5379C-0.0157123 23.6096 0.0109767 23.6896 0.0735804 23.7303C3.09504 25.7087 6.58865 26.7539 10.1772 26.7539C21.9154 26.7539 28.9296 17.0191 28.9296 7.60802C28.9296 7.34597 28.9247 7.08526 28.9145 6.82522C30.1807 5.8796 31.2677 4.72205 32.1442 3.38217C32.1834 3.32229 32.1791 3.24256 32.1333 3.18672Z" fill="black" fill-opacity="1"/>
</svg>
