<svg width="18" height="17" viewBox="0 0 18 17" fill="none" xmlns="http://www.w3.org/2000/svg">
<path d="M5.81913 17C5.46026 16.9997 5.11621 16.8648 4.86261 16.625L4.22192 16.0242C4.17963 15.9846 4.14607 15.9375 4.12316 15.8856C4.10026 15.8337 4.08846 15.778 4.08846 15.7217C4.08846 15.6655 4.10026 15.6098 4.12316 15.5579C4.14607 15.5059 4.17963 15.4588 4.22192 15.4192C4.53299 15.095 4.70012 14.6702 4.68872 14.2328C4.67732 13.7955 4.48825 13.379 4.16067 13.0696C3.83308 12.7603 3.39207 12.5817 2.92894 12.5709C2.46581 12.5602 2.01602 12.718 1.67271 13.0118C1.63077 13.0517 1.58087 13.0834 1.52589 13.105C1.47091 13.1267 1.41193 13.1378 1.35237 13.1378C1.29281 13.1378 1.23384 13.1267 1.17886 13.105C1.12387 13.0834 1.07397 13.0517 1.03203 13.0118L0.395854 12.4067C0.142376 12.167 0 11.8421 0 11.5034C0 11.1647 0.142376 10.8398 0.395854 10.6001L11.2244 0.373837C11.4781 0.134457 11.8222 0 12.1809 0C12.5396 0 12.8836 0.134457 13.1374 0.373837L13.7781 0.974629C13.8204 1.01424 13.8539 1.06137 13.8768 1.11329C13.8997 1.16521 13.9115 1.22091 13.9115 1.27716C13.9115 1.3334 13.8997 1.3891 13.8768 1.44102C13.8539 1.49294 13.8204 1.54007 13.7781 1.57968C13.467 1.9039 13.2999 2.32866 13.3113 2.76604C13.3227 3.20341 13.5117 3.6199 13.8393 3.92926C14.1669 4.23862 14.6079 4.41717 15.0711 4.42794C15.5342 4.43871 15.984 4.28087 16.3273 3.98711C16.3692 3.94717 16.4191 3.91547 16.4741 3.89384C16.5291 3.87221 16.5881 3.86107 16.6476 3.86107C16.7072 3.86107 16.7662 3.87221 16.8211 3.89384C16.8761 3.91547 16.926 3.94717 16.968 3.98711L17.6041 4.59216C17.8576 4.83184 18 5.15673 18 5.49548C18 5.83422 17.8576 6.15912 17.6041 6.3988C17.5196 6.47816 17.4053 6.5227 17.2861 6.5227C17.1669 6.5227 17.0525 6.47816 16.968 6.3988C16.9257 6.35919 16.8921 6.31206 16.8692 6.26014C16.8463 6.20821 16.8345 6.15252 16.8345 6.09627C16.8345 6.04002 16.8463 5.98433 16.8692 5.93241C16.8921 5.88048 16.9257 5.83336 16.968 5.79375C17.0513 5.71438 17.0983 5.60726 17.0988 5.49548C17.0992 5.4394 17.0878 5.38381 17.0653 5.3319C17.0429 5.27999 17.0098 5.23277 16.968 5.19295L16.6206 4.86912C16.0989 5.21802 15.4634 5.38134 14.8264 5.33016C14.1895 5.27898 13.5923 5.0166 13.1406 4.58948C12.6888 4.16237 12.4117 3.59807 12.3583 2.99651C12.3049 2.39495 12.4786 1.79494 12.8486 1.30272L12.5012 0.974629C12.4593 0.934692 12.4094 0.902993 12.3544 0.881361C12.2994 0.859729 12.2404 0.848591 12.1809 0.848591C12.1213 0.848591 12.0623 0.859729 12.0074 0.881361C11.9524 0.902993 11.9025 0.934692 11.8605 0.974629L1.03203 11.2009C0.989739 11.2405 0.956173 11.2876 0.933267 11.3395C0.910361 11.3915 0.898568 11.4471 0.898568 11.5034C0.898568 11.5596 0.910361 11.6153 0.933267 11.6673C0.956173 11.7192 0.989739 11.7663 1.03203 11.8059L1.37944 12.1298C1.9009 11.7779 2.53762 11.6122 3.17632 11.6621C3.81501 11.712 4.41425 11.9742 4.86742 12.4022C5.32059 12.8301 5.59829 13.396 5.65111 13.9992C5.70393 14.6024 5.52845 15.2037 5.15588 15.6962L5.49878 16.0242C5.54073 16.0642 5.59063 16.0959 5.64561 16.1175C5.70059 16.1391 5.75957 16.1503 5.81913 16.1503C5.87869 16.1503 5.93766 16.1391 5.99264 16.1175C6.04763 16.0959 6.09753 16.0642 6.13947 16.0242L15.4339 7.22542C15.4759 7.18548 15.5258 7.15378 15.5808 7.13215C15.6357 7.11052 15.6947 7.09938 15.7543 7.09938C15.8138 7.09938 15.8728 7.11052 15.9278 7.13215C15.9828 7.15378 16.0327 7.18548 16.0746 7.22542C16.1587 7.30525 16.2058 7.41325 16.2058 7.52581C16.2058 7.63838 16.1587 7.74638 16.0746 7.82621L6.76662 16.625C6.51524 16.8628 6.17486 16.9975 5.81913 17Z" fill="#FC6C1B"/>
<path d="M7.56519 8.30343C7.81028 8.49442 7.97115 8.76485 8.01638 9.06187C8.02127 9.1865 7.99713 9.31062 7.94568 9.42547C7.89423 9.54032 7.81671 9.64311 7.71859 9.72658C7.59434 9.84653 7.43867 9.93327 7.26741 9.97797C7.10237 10.0218 6.92678 10.0144 6.76659 9.95667C6.5638 9.88074 6.38068 9.76448 6.22967 9.6158C6.06472 9.46823 5.92742 9.29535 5.82361 9.10448C5.74443 8.95725 5.72057 8.78898 5.75593 8.62726C5.80281 8.45064 5.90315 8.29073 6.04469 8.16708C6.14561 8.06905 6.26495 7.98958 6.39661 7.93273C6.51644 7.88606 6.64674 7.86848 6.77561 7.8816C6.91541 7.89439 7.05074 7.93505 7.17266 8.0009C7.31539 8.08714 7.44711 8.18866 7.56519 8.30343ZM7.13656 8.66987C7.00153 8.52968 6.83915 8.41539 6.6583 8.33326C6.60761 8.32067 6.55463 8.31866 6.50304 8.32737C6.45144 8.33607 6.40248 8.35529 6.35954 8.38367C6.3166 8.41206 6.28072 8.44893 6.2544 8.49173C6.22808 8.53453 6.21194 8.58223 6.20711 8.63152C6.21372 8.72393 6.24816 8.81264 6.30638 8.88718C6.39214 8.99789 6.48719 9.10191 6.59062 9.19822C6.69445 9.30152 6.80937 9.39434 6.93353 9.47519C7.00926 9.53269 7.10262 9.56557 7.19973 9.56893C7.2525 9.56604 7.30389 9.55183 7.34997 9.52735C7.39604 9.50288 7.4356 9.4688 7.46562 9.42771C7.49565 9.38662 7.51535 9.3396 7.52322 9.29023C7.53109 9.24086 7.52693 9.19045 7.51105 9.14283C7.41851 8.96452 7.2915 8.80411 7.13656 8.66987ZM8.46756 6.41157L9.582 10.8941C9.60029 10.9369 9.60617 10.9836 9.59903 11.0292C9.59189 11.0749 9.572 11.118 9.54139 11.154C9.50417 11.187 9.45674 11.2079 9.40603 11.2136C9.37905 11.218 9.35136 11.2159 9.32539 11.2078C9.29943 11.1996 9.27599 11.1855 9.25714 11.1668C9.21967 11.126 9.19609 11.0755 9.18946 11.0219L8.0615 6.50531C8.04373 6.44248 8.03165 6.37834 8.0254 6.31357C8.02398 6.28777 8.02895 6.26201 8.03992 6.23835C8.05088 6.21468 8.06754 6.19375 8.08857 6.17722C8.10665 6.15772 8.12881 6.14197 8.15366 6.13097C8.17851 6.11997 8.20551 6.11396 8.23295 6.11331C8.2592 6.11179 8.28547 6.116 8.30972 6.1256C8.33397 6.13521 8.35556 6.14996 8.37281 6.1687C8.42297 6.24207 8.45533 6.32501 8.46756 6.41157ZM11.3777 7.68985C11.6228 7.88084 11.7837 8.15127 11.8289 8.4483C11.8338 8.57292 11.8097 8.69704 11.7582 8.8119C11.7068 8.92675 11.6292 9.02954 11.5311 9.11301C11.4069 9.23296 11.2512 9.3197 11.0799 9.3644C10.9105 9.4143 10.7286 9.41131 10.5611 9.35588C10.3565 9.28316 10.1727 9.16645 10.0242 9.015C9.78324 8.81854 9.61557 8.55414 9.5459 8.26082C9.53273 8.13119 9.55339 8.00049 9.60609 7.88016C9.65879 7.75982 9.74192 7.65352 9.8482 7.57055C9.94598 7.47099 10.0642 7.39126 10.1956 7.3362C10.3142 7.29056 10.4424 7.27159 10.5701 7.2808C10.7103 7.29154 10.8461 7.33234 10.9671 7.40011C11.117 7.47733 11.2551 7.57336 11.3777 7.68559V7.68985ZM10.9265 8.05629C10.8019 7.91742 10.6483 7.80428 10.4753 7.72394C10.4157 7.70205 10.3503 7.69808 10.2881 7.71257C10.2259 7.72706 10.17 7.7593 10.1279 7.8049C10.0953 7.83238 10.0689 7.86579 10.0503 7.90313C10.0317 7.94047 10.0213 7.98097 10.0196 8.02221C10.0245 8.11295 10.0575 8.20036 10.1144 8.2736C10.1953 8.38791 10.2891 8.49363 10.3941 8.58891C10.5334 8.73238 10.7003 8.84951 10.8859 8.93405C10.9464 8.95774 11.0132 8.96309 11.0771 8.94935C11.141 8.93561 11.1987 8.90346 11.2424 8.85735C11.292 8.81568 11.3262 8.76013 11.34 8.6988C11.3538 8.63748 11.3464 8.57359 11.3191 8.51648C11.2269 8.34045 11.0997 8.18278 10.9446 8.05203L10.9265 8.05629Z" fill="#FC6C1B"/>
</svg>
