<svg width="17" height="17" viewBox="0 0 17 17" fill="none" xmlns="http://www.w3.org/2000/svg">
<path d="M7.035 17C6.92371 17 6.81357 16.9813 6.71123 16.945C6.60889 16.9088 6.51647 16.8558 6.43954 16.7891C6.28126 16.6525 6.19287 16.4705 6.19287 16.2811C6.19287 16.0918 6.28126 15.9097 6.43954 15.7731L14.9655 8.50085L6.43954 1.22855C6.28126 1.09197 6.19287 0.90994 6.19287 0.720569C6.19287 0.531199 6.28126 0.349169 6.43954 0.212584C6.51649 0.145819 6.60898 0.0926775 6.71141 0.0563698C6.81385 0.0200622 6.9241 0.00134277 7.03551 0.00134277C7.14692 0.00134277 7.25717 0.0200622 7.35961 0.0563698C7.46204 0.0926775 7.55453 0.145819 7.63148 0.212584L16.7529 7.99286C16.9114 8.12935 16.9999 8.31141 16.9999 8.50085C16.9999 8.69028 16.9114 8.87235 16.7529 9.00883L7.63148 16.7891C7.55443 16.8559 7.46184 16.909 7.35932 16.9452C7.25679 16.9815 7.14646 17.0001 7.035 17Z" fill="#FC6C1B"/>
<path d="M0.842524 17C0.731233 17 0.621097 16.9813 0.518759 16.945C0.41642 16.9088 0.323999 16.8558 0.247069 16.7891C0.0885524 16.6526 0 16.4706 0 16.2811C0 16.0917 0.0885524 15.9096 0.247069 15.7731L8.773 8.50085L0.247069 1.22856C0.0885524 1.09207 0 0.910004 0 0.720571C0 0.531137 0.0885524 0.34907 0.247069 0.212586C0.324062 0.145421 0.416738 0.091939 0.519459 0.0553927C0.622179 0.0188464 0.732798 0 0.844585 0C0.956372 0 1.06699 0.0188464 1.16971 0.0553927C1.27243 0.091939 1.36511 0.145421 1.4421 0.212586L10.5604 7.99286C10.7187 8.12945 10.8071 8.31148 10.8071 8.50085C10.8071 8.69022 10.7187 8.87225 10.5604 9.00883L1.4421 16.7891C1.36469 16.8562 1.2716 16.9095 1.16852 16.9457C1.06543 16.982 0.954509 17.0004 0.842524 17Z" fill="#FC6C1B"/>
</svg>
