<svg width="18" height="17" viewBox="0 0 18 17" fill="none" xmlns="http://www.w3.org/2000/svg">
<path d="M17.5434 17H1.38338C1.18615 17.0018 0.990818 16.963 0.810752 16.8862C0.630686 16.8093 0.47013 16.6962 0.34006 16.5547C0.20999 16.4131 0.113475 16.2464 0.0571148 16.066C0.000754201 15.8856 -0.0141229 15.6956 0.0135007 15.5092L1.57973 5.04771C1.62625 4.7335 1.79087 4.44616 2.04291 4.23925C2.29495 4.03234 2.6172 3.91998 2.94961 3.9231H15.0822C15.4146 3.91998 15.7368 4.03234 15.9889 4.23925C16.2409 4.44616 16.4055 4.7335 16.452 5.04771L17.9041 14.7595C17.9211 14.8751 17.8892 14.9924 17.8156 15.0856C17.7419 15.1788 17.6325 15.2402 17.5114 15.2564C17.4514 15.2644 17.3904 15.2611 17.3318 15.2466C17.2732 15.2321 17.2181 15.2067 17.1698 15.1719C17.0722 15.1016 17.0078 14.9971 16.9909 14.8815L15.5388 5.16976C15.5233 5.06502 15.4684 4.96924 15.3844 4.90027C15.3004 4.8313 15.193 4.79385 15.0822 4.79489H2.94961C2.8388 4.79385 2.73139 4.8313 2.64737 4.90027C2.56336 4.96924 2.50849 5.06502 2.49298 5.16976L0.926753 15.6313C0.917545 15.6934 0.922504 15.7567 0.941291 15.8169C0.960078 15.877 0.992249 15.9326 1.03561 15.9798C1.07896 16.0269 1.13248 16.0646 1.1925 16.0902C1.25253 16.1159 1.31763 16.1288 1.38338 16.1282H17.5434C17.6645 16.1282 17.7806 16.1741 17.8663 16.2558C17.9519 16.3376 18 16.4485 18 16.5641C18 16.6797 17.9519 16.7906 17.8663 16.8723C17.7806 16.954 17.6645 17 17.5434 17Z" fill="#FC6C1B"/>
<path d="M5.80807 8.71794C5.44682 8.71794 5.09369 8.61568 4.79332 8.42409C4.49295 8.23251 4.25885 7.9602 4.1206 7.6416C3.98236 7.323 3.94619 6.97242 4.01666 6.6342C4.08714 6.29598 4.2611 5.9853 4.51654 5.74146C4.77198 5.49761 5.09743 5.33155 5.45174 5.26428C5.80605 5.197 6.1733 5.23153 6.50705 5.3635C6.8408 5.49546 7.12606 5.71894 7.32675 6.00568C7.52745 6.29241 7.63458 6.62951 7.63458 6.97436C7.63458 7.43679 7.44214 7.88027 7.09961 8.20726C6.75707 8.53424 6.29249 8.71794 5.80807 8.71794ZM5.80807 6.10257C5.62745 6.10257 5.45088 6.1537 5.3007 6.24949C5.15051 6.34528 5.03346 6.48144 4.96434 6.64074C4.89522 6.80004 4.87713 6.97533 4.91237 7.14444C4.94761 7.31355 5.03458 7.46889 5.16231 7.59081C5.29003 7.71273 5.45275 7.79576 5.62991 7.8294C5.80706 7.86304 5.99068 7.84577 6.15756 7.77979C6.32443 7.7138 6.46706 7.60207 6.56741 7.4587C6.66776 7.31533 6.72132 7.14678 6.72132 6.97436C6.72132 6.74314 6.62511 6.5214 6.45384 6.35791C6.28257 6.19442 6.05028 6.10257 5.80807 6.10257Z" fill="#FC6C1B"/>
<path d="M12.2009 8.71794C11.8396 8.71794 11.4865 8.61568 11.1861 8.42409C10.8858 8.23251 10.6517 7.9602 10.5134 7.6416C10.3752 7.323 10.339 6.97242 10.4095 6.6342C10.48 6.29598 10.6539 5.9853 10.9094 5.74146C11.1648 5.49761 11.4903 5.33155 11.8446 5.26428C12.1989 5.197 12.5661 5.23153 12.8999 5.3635C13.2336 5.49546 13.5189 5.71894 13.7196 6.00568C13.9203 6.29241 14.0274 6.62951 14.0274 6.97436C14.0274 7.43679 13.835 7.88027 13.4924 8.20726C13.1499 8.53424 12.6853 8.71794 12.2009 8.71794ZM12.2009 6.10257C12.0203 6.10257 11.8437 6.1537 11.6935 6.24949C11.5433 6.34528 11.4263 6.48144 11.3572 6.64074C11.288 6.80004 11.27 6.97533 11.3052 7.14444C11.3404 7.31355 11.4274 7.46889 11.5551 7.59081C11.6828 7.71273 11.8456 7.79576 12.0227 7.8294C12.1999 7.86304 12.3835 7.84577 12.5504 7.77979C12.7173 7.7138 12.8599 7.60207 12.9602 7.4587C13.0606 7.31533 13.1141 7.14678 13.1141 6.97436C13.1141 6.74314 13.0179 6.5214 12.8467 6.35791C12.6754 6.19442 12.4431 6.10257 12.2009 6.10257Z" fill="#FC6C1B"/>
<path d="M12.2009 6.10254C12.0798 6.10254 11.9636 6.05662 11.878 5.97487C11.7923 5.89312 11.7442 5.78225 11.7442 5.66665V3.48717C11.7442 3.14371 11.6734 2.80362 11.5357 2.48631C11.398 2.16899 11.1962 1.88068 10.9418 1.63782C10.6874 1.39496 10.3853 1.20231 10.0529 1.07088C9.72054 0.93944 9.36427 0.871791 9.00448 0.871791C8.64469 0.871791 8.28842 0.93944 7.95602 1.07088C7.62362 1.20231 7.32159 1.39496 7.06718 1.63782C6.81277 1.88068 6.61096 2.16899 6.47327 2.48631C6.33559 2.80362 6.26472 3.14371 6.26472 3.48717V5.66665C6.26472 5.78225 6.21661 5.89312 6.13098 5.97487C6.04535 6.05662 5.9292 6.10254 5.8081 6.10254C5.68699 6.10254 5.57085 6.05662 5.48521 5.97487C5.39958 5.89312 5.35147 5.78225 5.35147 5.66665V3.48717C5.35147 2.56231 5.73634 1.67534 6.42141 1.02137C7.10648 0.367397 8.03564 0 9.00448 0C9.97332 0 10.9025 0.367397 11.5875 1.02137C12.2726 1.67534 12.6575 2.56231 12.6575 3.48717V5.66665C12.6575 5.78225 12.6094 5.89312 12.5237 5.97487C12.4381 6.05662 12.322 6.10254 12.2009 6.10254Z" fill="#FC6C1B"/>
<path d="M9.00448 15.2563C8.89565 15.2564 8.79039 15.2193 8.70767 15.1517L5.51129 12.5364C5.44066 12.4779 5.39052 12.4002 5.36766 12.3136C5.34479 12.2271 5.3503 12.136 5.38344 12.0525C5.41582 11.9698 5.47376 11.8984 5.5496 11.8478C5.62543 11.7972 5.71558 11.7698 5.8081 11.7692H7.17798V9.5897C7.17798 9.4741 7.22608 9.36323 7.31172 9.28148C7.39735 9.19973 7.5135 9.15381 7.6346 9.15381H10.3744C10.4955 9.15381 10.6116 9.19973 10.6972 9.28148C10.7829 9.36323 10.831 9.4741 10.831 9.5897V11.7692H12.2009C12.2942 11.7692 12.3853 11.7965 12.4619 11.8474C12.5385 11.8984 12.5969 11.9705 12.6292 12.0541C12.6616 12.1377 12.6663 12.2287 12.6428 12.3149C12.6193 12.4012 12.5686 12.4784 12.4977 12.5364L9.30129 15.1517C9.21857 15.2193 9.11331 15.2564 9.00448 15.2563ZM7.04555 12.641L9.00448 14.2451L10.9725 12.641H10.3789C10.2578 12.641 10.1417 12.5951 10.056 12.5133C9.97041 12.4316 9.9223 12.3207 9.9223 12.2051V10.0256H8.09579V12.2051C8.09579 12.3207 8.04768 12.4316 7.96205 12.5133C7.87642 12.5951 7.76027 12.641 7.63917 12.641H7.04555Z" fill="#FC6C1B"/>
</svg>
