<svg width="23" height="22" viewBox="0 0 23 22" fill="none" xmlns="http://www.w3.org/2000/svg">
<path d="M21.5227 22H1.8222C1.58176 22.0024 1.34364 21.9522 1.12412 21.8527C0.904605 21.7532 0.708872 21.6069 0.550306 21.4237C0.391739 21.2406 0.274079 21.0248 0.20537 20.7913C0.136662 20.5578 0.118525 20.312 0.152201 20.0708L2.06157 6.53231C2.11829 6.12569 2.31898 5.75384 2.62623 5.48607C2.93349 5.2183 3.32634 5.07288 3.73158 5.07693H18.5222C18.9275 5.07288 19.3203 5.2183 19.6276 5.48607C19.9348 5.75384 20.1355 6.12569 20.1922 6.53231L21.9625 19.0723C21.9831 19.2204 21.9448 19.3708 21.8561 19.4903C21.7674 19.6098 21.6354 19.6888 21.4893 19.7097C21.4165 19.7209 21.3422 19.7173 21.2708 19.6992C21.1994 19.6811 21.1322 19.6488 21.0732 19.6042C21.0142 19.5596 20.9645 19.5036 20.927 19.4394C20.8895 19.3752 20.8649 19.3041 20.8547 19.2303L19.0789 6.69026C19.06 6.55472 18.9931 6.43077 18.8907 6.34151C18.7883 6.25225 18.6573 6.20378 18.5222 6.20513H3.73158C3.5965 6.20378 3.46555 6.25225 3.36313 6.34151C3.26071 6.43077 3.19381 6.55472 3.17491 6.69026L1.26554 20.2287C1.25431 20.3091 1.26036 20.3911 1.28326 20.4689C1.30616 20.5467 1.34538 20.6187 1.39824 20.6797C1.45109 20.7408 1.51634 20.7895 1.58951 20.8227C1.66268 20.8558 1.74206 20.8726 1.8222 20.8718H21.5227C21.6703 20.8718 21.8119 20.9312 21.9163 21.037C22.0207 21.1428 22.0794 21.2863 22.0794 21.4359C22.0794 21.5855 22.0207 21.729 21.9163 21.8348C21.8119 21.9406 21.6703 22 21.5227 22Z" fill="#FFFFF8"/>
<path d="M7.21636 11.282C6.77596 11.282 6.34546 11.1497 5.97929 10.9018C5.61311 10.6538 5.32771 10.3014 5.15918 9.88913C4.99065 9.47682 4.94655 9.02313 5.03247 8.58543C5.11839 8.14773 5.33046 7.74568 5.64186 7.43011C5.95327 7.11455 6.35002 6.89965 6.78196 6.81258C7.21389 6.72552 7.6616 6.7702 8.06847 6.94099C8.47534 7.11177 8.8231 7.40098 9.06777 7.77204C9.31244 8.14311 9.44303 8.57936 9.44303 9.02564C9.44303 9.62407 9.20844 10.198 8.79085 10.6212C8.37327 11.0443 7.80691 11.282 7.21636 11.282ZM7.21636 7.89743C6.99616 7.89743 6.78091 7.9636 6.59782 8.08757C6.41473 8.21154 6.27204 8.38774 6.18777 8.59389C6.1035 8.80004 6.08146 9.02689 6.12441 9.24574C6.16737 9.46459 6.27341 9.66562 6.42911 9.8234C6.58481 9.98118 6.78319 10.0886 6.99916 10.1322C7.21512 10.1757 7.43898 10.1534 7.64241 10.068C7.84585 9.98257 8.01973 9.83797 8.14206 9.65244C8.2644 9.4669 8.32969 9.24878 8.32969 9.02564C8.32969 8.72642 8.2124 8.43946 8.00361 8.22788C7.79481 8.0163 7.51163 7.89743 7.21636 7.89743Z" fill="#FFFFF8"/>
<path d="M15.0097 11.282C14.5693 11.282 14.1388 11.1497 13.7726 10.9018C13.4064 10.6538 13.121 10.3014 12.9525 9.88913C12.784 9.47682 12.7399 9.02313 12.8258 8.58543C12.9117 8.14773 13.1238 7.74568 13.4352 7.43011C13.7466 7.11455 14.1434 6.89965 14.5753 6.81258C15.0072 6.72552 15.4549 6.7702 15.8618 6.94099C16.2687 7.11177 16.6164 7.40098 16.8611 7.77204C17.1058 8.14311 17.2364 8.57936 17.2364 9.02564C17.2364 9.62407 17.0018 10.198 16.5842 10.6212C16.1666 11.0443 15.6002 11.282 15.0097 11.282ZM15.0097 7.89743C14.7895 7.89743 14.5742 7.9636 14.3912 8.08757C14.2081 8.21154 14.0654 8.38774 13.9811 8.59389C13.8968 8.80004 13.8748 9.02689 13.9177 9.24574C13.9607 9.46459 14.0667 9.66562 14.2224 9.8234C14.3781 9.98118 14.5765 10.0886 14.7925 10.1322C15.0085 10.1757 15.2323 10.1534 15.4357 10.068C15.6392 9.98257 15.8131 9.83797 15.9354 9.65244C16.0577 9.4669 16.123 9.24878 16.123 9.02564C16.123 8.72642 16.0057 8.43946 15.7969 8.22788C15.5881 8.0163 15.305 7.89743 15.0097 7.89743Z" fill="#FFFFF8"/>
<path d="M15.0097 7.89744C14.8621 7.89744 14.7205 7.838 14.6161 7.73221C14.5117 7.62642 14.453 7.48294 14.453 7.33333V4.51282C14.453 4.06835 14.3666 3.62822 14.1988 3.21758C14.0309 2.80694 13.7849 2.43383 13.4748 2.11954C13.1646 1.80525 12.7964 1.55594 12.3912 1.38584C11.9859 1.21575 11.5516 1.12821 11.113 1.12821C10.6744 1.12821 10.2401 1.21575 9.83485 1.38584C9.42962 1.55594 9.06142 1.80525 8.75127 2.11954C8.44112 2.43383 8.1951 2.80694 8.02725 3.21758C7.8594 3.62822 7.773 4.06835 7.773 4.51282V7.33333C7.773 7.48294 7.71436 7.62642 7.60996 7.73221C7.50556 7.838 7.36397 7.89744 7.21634 7.89744C7.0687 7.89744 6.92711 7.838 6.82271 7.73221C6.71832 7.62642 6.65967 7.48294 6.65967 7.33333V4.51282C6.65967 3.31595 7.12886 2.16809 7.96402 1.32177C8.79919 0.475457 9.93191 0 11.113 0C12.2941 0 13.4268 0.475457 14.262 1.32177C15.0972 2.16809 15.5664 3.31595 15.5664 4.51282V7.33333C15.5664 7.48294 15.5077 7.62642 15.4033 7.73221C15.2989 7.838 15.1573 7.89744 15.0097 7.89744Z" fill="#FFFFF8"/>
</svg>
