<svg width="40" height="39" viewBox="0 0 40 39" fill="none" xmlns="http://www.w3.org/2000/svg">
<g clip-path="url(#clip0)">
<path d="M38.2061 39H2.98552C2.55565 39.0043 2.12994 38.9152 1.73749 38.7389C1.34504 38.5626 0.995103 38.3032 0.711617 37.9785C0.428131 37.6538 0.217778 37.2713 0.0949403 36.8574C-0.0278972 36.4434 -0.0603218 36.0077 -0.000116227 35.58L3.41347 11.58C3.51486 10.8592 3.87365 10.2 4.42297 9.72532C4.97228 9.25064 5.67463 8.99286 6.39911 9.00002H32.8419C33.5664 8.99286 34.2688 9.25064 34.8181 9.72532C35.3674 10.2 35.7262 10.8592 35.8276 11.58L38.9923 33.81C39.0293 34.0726 38.9609 34.3391 38.8022 34.551C38.6436 34.7629 38.4077 34.9029 38.1464 34.94C38.0163 34.9598 37.8835 34.9535 37.7558 34.9214C37.6282 34.8893 37.5081 34.832 37.4026 34.753C37.2971 34.6739 37.2082 34.5746 37.1411 34.4608C37.0741 34.347 37.0301 34.221 37.0119 34.09L33.8371 11.86C33.8033 11.6197 33.6837 11.4 33.5006 11.2418C33.3175 11.0836 33.0834 10.9976 32.8419 11H6.39911C6.15761 10.9976 5.9235 11.0836 5.74039 11.2418C5.55729 11.4 5.43769 11.6197 5.40389 11.86L1.99031 35.86C1.97024 36.0026 1.98105 36.1478 2.022 36.2858C2.06294 36.4238 2.13306 36.5513 2.22755 36.6595C2.32205 36.7677 2.43869 36.8542 2.56951 36.913C2.70033 36.9718 2.84223 37.0014 2.98552 37H38.2061C38.4701 37 38.7232 37.1054 38.9099 37.2929C39.0965 37.4804 39.2013 37.7348 39.2013 38C39.2013 38.2652 39.0965 38.5196 38.9099 38.7071C38.7232 38.8947 38.4701 39 38.2061 39Z" fill="#FC6C1B"/>
<path d="M12.6293 20C11.842 20 11.0723 19.7654 10.4176 19.3259C9.763 18.8864 9.25276 18.2616 8.95146 17.5307C8.65016 16.7998 8.57133 15.9956 8.72493 15.2196C8.87853 14.4437 9.25767 13.731 9.8144 13.1716C10.3711 12.6122 11.0805 12.2312 11.8527 12.0769C12.6249 11.9225 13.4253 12.0017 14.1527 12.3045C14.8801 12.6072 15.5018 13.1199 15.9393 13.7777C16.3767 14.4355 16.6101 15.2089 16.6101 16C16.6101 17.0609 16.1907 18.0783 15.4442 18.8284C14.6976 19.5786 13.6851 20 12.6293 20ZM12.6293 14C12.2356 14 11.8508 14.1173 11.5235 14.3371C11.1961 14.5568 10.941 14.8692 10.7904 15.2346C10.6397 15.6001 10.6003 16.0022 10.6771 16.3902C10.7539 16.7781 10.9435 17.1345 11.2218 17.4142C11.5002 17.6939 11.8549 17.8844 12.241 17.9616C12.6271 18.0387 13.0273 17.9991 13.391 17.8478C13.7547 17.6964 14.0656 17.44 14.2843 17.1111C14.503 16.7822 14.6197 16.3956 14.6197 16C14.6197 15.4696 14.41 14.9609 14.0367 14.5858C13.6635 14.2107 13.1572 14 12.6293 14Z" fill="#FC6C1B"/>
<path d="M26.5623 20C25.7749 20 25.0053 19.7654 24.3506 19.3259C23.696 18.8864 23.1857 18.2616 22.8844 17.5307C22.5831 16.7998 22.5043 15.9956 22.6579 15.2196C22.8115 14.4437 23.1907 13.731 23.7474 13.1716C24.3041 12.6122 25.0134 12.2312 25.7857 12.0769C26.5579 11.9225 27.3583 12.0017 28.0857 12.3045C28.8131 12.6072 29.4348 13.1199 29.8722 13.7777C30.3097 14.4355 30.5431 15.2089 30.5431 16C30.5431 17.0609 30.1237 18.0783 29.3772 18.8284C28.6306 19.5786 27.6181 20 26.5623 20ZM26.5623 14C26.1686 14 25.7838 14.1173 25.4565 14.3371C25.1291 14.5568 24.874 14.8692 24.7234 15.2346C24.5727 15.6001 24.5333 16.0022 24.6101 16.3902C24.6869 16.7781 24.8765 17.1345 25.1548 17.4142C25.4332 17.6939 25.7879 17.8844 26.174 17.9616C26.5601 18.0387 26.9603 17.9991 27.324 17.8478C27.6877 17.6964 27.9985 17.44 28.2173 17.1111C28.436 16.7822 28.5527 16.3956 28.5527 16C28.5527 15.4696 28.343 14.9609 27.9697 14.5858C27.5964 14.2107 27.0902 14 26.5623 14Z" fill="#FC6C1B"/>
<path d="M26.5623 14C26.2983 14 26.0452 13.8946 25.8586 13.7071C25.6719 13.5196 25.5671 13.2652 25.5671 13V8C25.5671 7.21207 25.4126 6.43185 25.1125 5.7039C24.8125 4.97595 24.3726 4.31451 23.8181 3.75736C23.2636 3.20021 22.6054 2.75825 21.8809 2.45672C21.1564 2.15519 20.38 2 19.5958 2C18.8116 2 18.0352 2.15519 17.3107 2.45672C16.5862 2.75825 15.928 3.20021 15.3735 3.75736C14.819 4.31451 14.3791 4.97595 14.0791 5.7039C13.779 6.43185 13.6245 7.21207 13.6245 8V13C13.6245 13.2652 13.5197 13.5196 13.333 13.7071C13.1464 13.8946 12.8933 14 12.6293 14C12.3654 14 12.1122 13.8946 11.9256 13.7071C11.7389 13.5196 11.6341 13.2652 11.6341 13V8C11.6341 5.87827 12.4729 3.84344 13.966 2.34315C15.4591 0.842855 17.4842 0 19.5958 0C21.7074 0 23.7325 0.842855 25.2256 2.34315C26.7187 3.84344 27.5575 5.87827 27.5575 8V13C27.5575 13.2652 27.4527 13.5196 27.266 13.7071C27.0794 13.8946 26.8262 14 26.5623 14Z" fill="#FC6C1B"/>
</g>
<defs>
<clipPath id="clip0">
<rect width="39.2015" height="39" fill="white"/>
</clipPath>
</defs>
</svg>
