<svg width="18" height="17" viewBox="0 0 18 17" fill="none" xmlns="http://www.w3.org/2000/svg">
<path d="M11.625 10.3889H3.37503C3.27557 10.3889 3.18019 10.3391 3.10987 10.2506C3.03954 10.162 3.00003 10.0419 3.00003 9.91667C3.00003 9.79143 3.03954 9.67131 3.10987 9.58276C3.18019 9.4942 3.27557 9.44444 3.37503 9.44444H11.25V1.41667C11.25 1.29143 11.2105 1.17131 11.1402 1.08276C11.0699 0.994196 10.9745 0.944444 10.875 0.944444H7.50003C7.40057 0.944444 7.30519 0.894693 7.23487 0.806134C7.16454 0.717575 7.12503 0.597463 7.12503 0.472222C7.12503 0.346981 7.16454 0.22687 7.23487 0.138311C7.30519 0.0497519 7.40057 0 7.50003 0L10.875 0C11.1734 0 11.4595 0.149256 11.6705 0.414932C11.8815 0.680609 12 1.04094 12 1.41667V9.91667C12 10.0419 11.9605 10.162 11.8902 10.2506C11.8199 10.3391 11.7245 10.3889 11.625 10.3889Z" fill="#FC6C1B"/>
<path d="M10.875 14.1667H10.5C10.4006 14.1667 10.3052 14.1169 10.2349 14.0284C10.1645 13.9398 10.125 13.8197 10.125 13.6945C10.125 13.5692 10.1645 13.4491 10.2349 13.3605C10.3052 13.272 10.4006 13.2222 10.5 13.2222H10.875C10.9745 13.2222 11.0699 13.272 11.1402 13.3605C11.2105 13.4491 11.25 13.5692 11.25 13.6945C11.25 13.8197 11.2105 13.9398 11.1402 14.0284C11.0699 14.1169 10.9745 14.1667 10.875 14.1667Z" fill="#FC6C1B"/>
<path d="M17.625 14.1667C17.5256 14.1667 17.4302 14.1169 17.3599 14.0284C17.2895 13.9398 17.25 13.8197 17.25 13.6945V10.3889H3.75003V13.2222C3.84949 13.2222 3.94487 13.272 4.0152 13.3605C4.08552 13.4491 4.12503 13.5692 4.12503 13.6945C4.12503 13.8197 4.08552 13.9398 4.0152 14.0284C3.94487 14.1169 3.84949 14.1667 3.75003 14.1667H3.37503C3.27557 14.1667 3.18019 14.1169 3.10987 14.0284C3.03954 13.9398 3.00003 13.8197 3.00003 13.6945V9.91668C3.00003 9.79144 3.03954 9.67133 3.10987 9.58277C3.18019 9.49421 3.27557 9.44446 3.37503 9.44446H17.625C17.7245 9.44446 17.8199 9.49421 17.8902 9.58277C17.9605 9.67133 18 9.79144 18 9.91668V13.6945C18 13.8197 17.9605 13.9398 17.8902 14.0284C17.8199 14.1169 17.7245 14.1667 17.625 14.1667Z" fill="#FC6C1B"/>
<path d="M14.25 16.9999C13.805 16.9999 13.37 16.8337 13 16.5224C12.63 16.2111 12.3416 15.7686 12.1713 15.2509C12.001 14.7331 11.9564 14.1634 12.0433 13.6138C12.1301 13.0642 12.3444 12.5594 12.659 12.1631C12.9737 11.7669 13.3746 11.497 13.8111 11.3877C14.2475 11.2784 14.6999 11.3345 15.1111 11.5489C15.5222 11.7634 15.8736 12.1265 16.1208 12.5925C16.3681 13.0584 16.5 13.6062 16.5 14.1666C16.5 14.918 16.263 15.6387 15.841 16.1701C15.4191 16.7014 14.8468 16.9999 14.25 16.9999ZM14.25 12.2777C13.9534 12.2777 13.6633 12.3885 13.4167 12.596C13.17 12.8036 12.9777 13.0986 12.8642 13.4437C12.7507 13.7889 12.721 14.1687 12.7789 14.5351C12.8367 14.9015 12.9796 15.2381 13.1894 15.5022C13.3992 15.7664 13.6664 15.9463 13.9574 16.0192C14.2484 16.0921 14.55 16.0547 14.8241 15.9117C15.0981 15.7687 15.3324 15.5266 15.4972 15.216C15.6621 14.9054 15.75 14.5402 15.75 14.1666C15.75 13.6656 15.592 13.1852 15.3107 12.8309C15.0294 12.4767 14.6479 12.2777 14.25 12.2777Z" fill="#FC6C1B"/>
<path d="M7.12503 16.9999C6.68002 16.9999 6.24501 16.8337 5.875 16.5224C5.50499 16.2111 5.2166 15.7686 5.0463 15.2509C4.87601 14.7331 4.83145 14.1634 4.91826 13.6138C5.00508 13.0642 5.21937 12.5594 5.53404 12.1631C5.84871 11.7669 6.24962 11.497 6.68608 11.3877C7.12254 11.2784 7.57493 11.3345 7.98607 11.5489C8.3972 11.7634 8.7486 12.1265 8.99584 12.5925C9.24307 13.0584 9.37503 13.6062 9.37503 14.1666C9.37503 14.918 9.13798 15.6387 8.71602 16.1701C8.29406 16.7014 7.72177 16.9999 7.12503 16.9999ZM7.12503 12.2777C6.82836 12.2777 6.53835 12.3885 6.29168 12.596C6.045 12.8036 5.85274 13.0986 5.73921 13.4437C5.62568 13.7889 5.59598 14.1687 5.65385 14.5351C5.71173 14.9015 5.85459 15.2381 6.06437 15.5022C6.27415 15.7664 6.54142 15.9463 6.8324 16.0192C7.12337 16.0921 7.42497 16.0547 7.69906 15.9117C7.97315 15.7687 8.20741 15.5266 8.37224 15.216C8.53706 14.9054 8.62503 14.5402 8.62503 14.1666C8.62503 13.6656 8.467 13.1852 8.18569 12.8309C7.90439 12.4767 7.52286 12.2777 7.12503 12.2777Z" fill="#FC6C1B"/>
<path d="M17.625 10.3888H11.625C11.5256 10.3888 11.4302 10.3391 11.3599 10.2505C11.2895 10.162 11.25 10.0418 11.25 9.91661V4.72216C11.25 4.59692 11.2895 4.47681 11.3599 4.38825C11.4302 4.29969 11.5256 4.24994 11.625 4.24994H14.625C15.5201 4.24994 16.3786 4.69771 17.0115 5.49474C17.6445 6.29176 18 7.37277 18 8.49994V9.91661C18 10.0418 17.9605 10.162 17.8902 10.2505C17.8199 10.3391 17.7245 10.3888 17.625 10.3888ZM12 9.44438H17.25V8.49994C17.25 7.62325 16.9735 6.78247 16.4812 6.16256C15.9889 5.54265 15.3212 5.19438 14.625 5.19438H12V9.44438Z" fill="#FC6C1B"/>
<path d="M5.25 8.02776H0.375C0.275544 8.02776 0.180161 7.97801 0.109835 7.88945C0.0395088 7.80089 0 7.68078 0 7.55554C0 7.43029 0.0395088 7.31018 0.109835 7.22162C0.180161 7.13306 0.275544 7.08331 0.375 7.08331H5.25C5.34946 7.08331 5.44484 7.13306 5.51516 7.22162C5.58549 7.31018 5.625 7.43029 5.625 7.55554C5.625 7.68078 5.58549 7.80089 5.51516 7.88945C5.44484 7.97801 5.34946 8.02776 5.25 8.02776Z" fill="#FC6C1B"/>
<path d="M5.25003 5.19438H1.50003C1.40057 5.19438 1.30519 5.14463 1.23487 5.05607C1.16454 4.96751 1.12503 4.8474 1.12503 4.72216C1.12503 4.59692 1.16454 4.47681 1.23487 4.38825C1.30519 4.29969 1.40057 4.24994 1.50003 4.24994H5.25003C5.34949 4.24994 5.44487 4.29969 5.5152 4.38825C5.58552 4.47681 5.62503 4.59692 5.62503 4.72216C5.62503 4.8474 5.58552 4.96751 5.5152 5.05607C5.44487 5.14463 5.34949 5.19438 5.25003 5.19438Z" fill="#FC6C1B"/>
<path d="M5.25003 2.36107H3.00003C2.90057 2.36107 2.80519 2.31132 2.73487 2.22276C2.66454 2.1342 2.62503 2.01409 2.62503 1.88885C2.62503 1.76361 2.66454 1.6435 2.73487 1.55494C2.80519 1.46638 2.90057 1.41663 3.00003 1.41663H5.25003C5.34949 1.41663 5.44487 1.46638 5.5152 1.55494C5.58552 1.6435 5.62503 1.76361 5.62503 1.88885C5.62503 2.01409 5.58552 2.1342 5.5152 2.22276C5.44487 2.31132 5.34949 2.36107 5.25003 2.36107Z" fill="#FC6C1B"/>
</svg>
