<svg width="23" height="19" viewBox="0 0 23 19" fill="none" xmlns="http://www.w3.org/2000/svg">
<path d="M16.6727 6.55608C15.3507 6.55608 14.1927 7.41808 13.8447 8.69308H0.829737C0.722782 8.68769 0.615849 8.7041 0.515434 8.74132C0.41502 8.77854 0.323221 8.83579 0.245616 8.90958C0.168011 8.98338 0.106219 9.07218 0.0639961 9.1706C0.021773 9.26901 0 9.37499 0 9.48208C0 9.58917 0.021773 9.69514 0.0639961 9.79355C0.106219 9.89197 0.168011 9.98077 0.245616 10.0546C0.323221 10.1284 0.41502 10.1856 0.515434 10.2228C0.615849 10.26 0.722782 10.2765 0.829737 10.2711H13.8447C14.1917 11.4861 15.3507 12.4091 16.6727 12.4091C17.9947 12.4091 19.1527 11.4861 19.5007 10.2711H21.2507C21.3577 10.2765 21.4646 10.26 21.565 10.2228C21.6655 10.1856 21.7573 10.1284 21.8349 10.0546C21.9125 9.98077 21.9743 9.89197 22.0165 9.79355C22.0587 9.69514 22.0805 9.58917 22.0805 9.48208C22.0805 9.37499 22.0587 9.26901 22.0165 9.1706C21.9743 9.07218 21.9125 8.98338 21.8349 8.90958C21.7573 8.83579 21.6655 8.77854 21.565 8.74132C21.4646 8.7041 21.3577 8.68769 21.2507 8.69308H19.5007C19.3302 8.07533 18.9606 7.53109 18.4493 7.14472C17.938 6.75836 17.3136 6.55145 16.6727 6.55608ZM16.6727 10.8341C15.9177 10.8341 15.3027 10.2241 15.3027 9.47408C15.3027 8.72408 15.9177 8.11408 16.6727 8.11408C17.4277 8.11408 18.0427 8.72408 18.0427 9.47408C18.0427 10.2241 17.4277 10.8341 16.6727 10.8341ZM8.66574 2.13708C8.4952 1.51933 8.12563 0.975088 7.61434 0.588725C7.10305 0.202361 6.47858 -0.00454627 5.83774 7.57883e-05C4.51574 7.57883e-05 3.35774 0.863076 3.00974 2.13708H0.799737C0.598437 2.13708 0.405383 2.21704 0.263043 2.35938C0.120702 2.50172 0.0407366 2.69478 0.0407366 2.89608C0.0407366 3.09737 0.120702 3.29043 0.263043 3.43277C0.405383 3.57511 0.598437 3.65508 0.799737 3.65508H3.00974C3.18013 4.27291 3.54965 4.81725 4.06098 5.20363C4.5723 5.59002 5.19685 5.79687 5.83774 5.79208C7.15874 5.79208 8.31774 4.93008 8.66574 3.65508H21.2807C21.482 3.65508 21.6751 3.57511 21.8174 3.43277C21.9598 3.29043 22.0397 3.09737 22.0397 2.89608C22.0397 2.69478 21.9598 2.50172 21.8174 2.35938C21.6751 2.21704 21.482 2.13708 21.2807 2.13708H8.66574ZM5.83774 4.25708C5.08274 4.25708 4.46774 3.64708 4.46774 2.89708C4.46774 2.14708 5.08274 1.53608 5.83774 1.53608C6.59274 1.53608 7.20674 2.14608 7.20674 2.89608C7.20674 3.64608 6.59274 4.25608 5.83674 4.25608L5.83774 4.25708ZM8.40074 13.0521C7.07874 13.0521 5.92074 13.9741 5.57274 15.1881H0.829737C0.627351 15.1983 0.436621 15.2858 0.296982 15.4327C0.157343 15.5795 0.0794733 15.7744 0.0794733 15.9771C0.0794733 16.1797 0.157343 16.3746 0.296982 16.5215C0.436621 16.6683 0.627351 16.7559 0.829737 16.7661H5.57274C5.74294 17.3841 6.11238 17.9287 6.62373 18.3152C7.13507 18.7018 7.75972 18.9088 8.40074 18.9041C9.72274 18.9041 10.8807 18.0411 11.2287 16.7671H21.2517C21.4541 16.7569 21.6449 16.6693 21.7845 16.5225C21.9241 16.3756 22.002 16.1807 22.002 15.9781C22.002 15.7754 21.9241 15.5805 21.7845 15.4337C21.6449 15.2868 21.4541 15.1993 21.2517 15.1891H11.2287C10.8817 13.9741 9.72274 13.0511 8.40074 13.0511V13.0521ZM8.40074 17.3541C7.64574 17.3541 7.03074 16.7441 7.03074 15.9941C7.03074 15.2441 7.64574 14.6341 8.40074 14.6341C9.15574 14.6341 9.77074 15.2441 9.77074 15.9941C9.77074 16.7441 9.15574 17.3541 8.40074 17.3541Z" fill="#1D1D1D"/>
</svg>
