<svg width="34" height="32" viewBox="0 0 34 32" fill="none" xmlns="http://www.w3.org/2000/svg">
<path d="M33.3355 19.3776C33.0012 20.7563 32.212 21.9015 31.5399 23.1035C30.8477 24.3402 30.2425 25.5801 29.2527 26.5739C28.2629 27.5676 26.9755 28.2428 25.7417 28.9715C23.321 30.5013 20.5215 31.4133 17.6161 31.6185C16.1883 31.6658 14.6769 31.7289 13.2189 31.4102C11.761 31.0916 10.4536 30.3691 9.18959 29.7382C7.92561 29.1072 6.48107 28.4952 5.42441 27.5645C4.32756 26.6151 3.36446 25.5368 2.55873 24.356C1.7863 23.1887 1.63917 21.7091 1.22119 20.3872C0.803206 19.0653 0.0575272 17.7781 0.00402556 16.3837C-0.0494761 14.9892 0.44207 13.6579 0.779799 12.2824C1.07533 10.9299 1.55527 9.61918 2.20762 8.38299C2.90315 7.14944 3.60201 5.85911 4.58845 4.86848C5.62549 3.86746 6.79421 2.99594 8.06605 2.27519C9.30328 1.54642 10.7612 1.18046 12.1623 0.776639C13.5499 0.341472 14.9925 0.0815675 16.4524 0.00369997C17.8836 -0.040468 19.2947 0.319185 20.756 0.63467C22.2172 0.950155 23.6384 1.24356 24.9024 1.87768C26.1663 2.51181 27.1962 3.55291 28.2462 4.48359C29.2962 5.41427 30.3896 6.33233 31.162 7.49963C31.9207 8.67043 32.5121 9.93065 32.9209 11.2476C33.3456 12.5505 33.9441 13.8756 33.9943 15.2732C34.0511 16.6171 33.6733 17.9864 33.3355 19.3776Z" fill="#333333"/>
<path d="M14.737 27.8579C15.1182 27.9021 15.4827 28.0945 15.8572 28.0724C16.2419 28.0514 16.6236 27.9965 16.9975 27.9084C17.3686 27.82 17.6194 27.4541 17.9672 27.3058C18.3257 27.2029 18.6737 27.0698 19.0071 26.9083C19.2898 26.6766 19.5495 26.4211 19.7829 26.1448C20.0504 25.8893 20.4517 25.7504 20.659 25.4507C20.9172 25.176 21.1478 24.8792 21.3478 24.5642C21.4983 24.2487 21.4381 23.8291 21.525 23.4726C21.6561 23.1032 21.7502 22.7229 21.8059 22.3369C21.8351 21.9456 21.8239 21.5525 21.7725 21.1633C21.7056 20.7815 21.2542 20.5039 21.1037 20.1443C20.9532 19.7846 20.99 19.3619 20.7693 19.0338C20.5486 18.7057 20.4751 18.2482 20.1942 17.9674C19.9133 17.6866 19.3983 17.6709 19.064 17.4437C18.7415 17.2147 18.3953 17.017 18.0307 16.8538C17.6503 16.7321 17.2584 16.6455 16.8604 16.5951C16.4777 16.4563 16.1075 16.2885 15.7535 16.0934C15.401 15.9171 15.0654 15.7124 14.7504 15.4814C14.3998 15.314 14.0643 15.1198 13.7472 14.9009C13.4429 14.6611 13.2992 14.292 13.0417 14.0112C12.7718 13.751 12.5236 13.4715 12.2993 13.1752C12.0781 12.8748 11.8825 12.5583 11.7142 12.2287C11.6048 11.8754 11.5243 11.5147 11.4734 11.1498C11.3764 10.7933 10.9484 10.4873 10.915 10.115C10.9253 9.73921 10.9667 9.36475 11.0387 8.99502C11.0655 8.62591 10.9384 8.21578 11.0387 7.8435C11.139 7.47123 11.4935 7.25986 11.6172 6.94437C11.7769 6.64909 11.9579 6.36449 12.1589 6.09256C12.2847 5.77932 12.4333 5.47468 12.6036 5.18081C12.821 4.9158 12.8912 4.51198 13.1453 4.27852C13.3995 4.04506 13.6503 4.06399 13.9378 3.86523C13.6262 3.90712 13.3171 3.96398 13.0116 4.0356C12.6504 4.14602 12.2726 4.20911 11.9248 4.35108C11.5771 4.49305 11.3162 4.78961 10.9819 4.95366C10.6475 5.11771 10.2696 5.19974 9.95195 5.39218C9.63429 5.58463 9.44703 5.93482 9.14943 6.14935C8.85183 6.36388 8.3469 6.3481 8.06936 6.58787C7.79182 6.82764 7.58116 7.14313 7.32703 7.40182C7.0729 7.66052 6.90236 7.99494 6.65826 8.27572C6.41416 8.5565 6.18343 8.83728 5.97946 9.12437C5.77548 9.41146 5.64507 9.75534 5.47453 10.0708C5.304 10.3863 5.01977 10.6608 4.88602 10.992C4.75226 11.3233 4.4881 11.623 4.37106 11.9574C4.25403 12.2918 4.29081 12.6767 4.20387 13.0269C4.11693 13.3771 4.20387 13.762 4.15037 14.1153C4.09687 14.4687 3.75245 14.8094 3.73239 15.1659C3.71232 15.5224 4.06677 15.8915 4.08684 16.248C4.1069 16.6045 3.9163 16.9831 3.96311 17.3365C4.00993 17.6898 4.01996 18.0652 4.10021 18.4154C4.18046 18.7656 4.17043 19.1568 4.28078 19.5007C4.39113 19.8446 4.61516 20.1695 4.75895 20.5008C4.90274 20.832 5.09334 21.1664 5.25384 21.4882C5.41435 21.81 5.8223 22.0088 6.02627 22.3148C6.23025 22.6208 6.43756 22.9079 6.66829 23.195C6.89902 23.4821 6.92577 23.9238 7.1799 24.1951C7.43403 24.4664 7.89883 24.539 8.18305 24.7851C8.46728 25.0311 8.61107 25.416 8.91201 25.64C9.21296 25.864 9.65101 25.8956 9.97202 26.0943C10.293 26.2931 10.5171 26.6243 10.8548 26.7947C11.1925 26.9651 11.4868 27.2364 11.8579 27.3783C12.2291 27.5203 12.6003 27.5897 12.9648 27.6938C13.3292 27.7979 13.7405 27.7475 14.1151 27.8295C14.3023 27.8831 14.5263 27.82 14.737 27.8579Z" fill="white"/>
<path d="M23.0063 22.7375C22.9768 23.0806 22.9209 23.4211 22.8391 23.7565C22.7957 23.9364 22.7422 24.1099 22.6853 24.2802C22.5884 24.5642 23.0665 24.9112 23.7687 25.0879L23.9326 25.1321C24.3205 25.2244 24.7257 25.2308 25.1167 25.1509C25.5076 25.071 25.8737 24.9069 26.1863 24.6715C26.4271 24.4475 26.6612 24.214 26.8886 23.9742C26.9999 23.8693 27.0796 23.7382 27.1194 23.5945C27.1592 23.4509 27.1578 23.2998 27.1152 23.1568C27.0727 23.0138 26.9905 22.8841 26.8772 22.7811C26.7639 22.678 26.6236 22.6053 26.4706 22.5703C25.745 22.3337 25.0193 22.1381 24.3038 21.9741C23.5882 21.81 23.0532 22.1697 23.0063 22.7375Z" fill="#ED1C24"/>
<path d="M28.9518 20.9803C29.1411 20.5982 29.3074 20.2064 29.45 19.8067C29.5536 19.4779 29.5232 19.1244 29.3648 18.8157C29.2065 18.5069 28.9316 18.2651 28.594 18.1377C26.3499 17.3406 23.992 16.8642 21.5987 16.7244C20.8697 16.677 20.746 17.0398 21.2175 17.5478C21.7231 18.1072 22.1337 18.7373 22.4346 19.4155C22.5935 19.7515 22.8271 20.0513 23.1196 20.2947C23.4121 20.538 23.7567 20.7191 24.13 20.8257C25.1392 21.0378 26.134 21.3064 27.1093 21.6302C27.448 21.7484 27.8205 21.7479 28.1587 21.6286C28.497 21.5093 28.7785 21.2791 28.9518 20.9803Z" fill="#ED1C24"/>
<path d="M30.1255 16.409C30.1674 15.6015 30.1249 14.792 29.9985 13.9924C29.909 13.6286 29.7222 13.2926 29.4558 13.0164C29.1894 12.7403 28.8524 12.5332 28.477 12.4149C23.99 11.2171 19.2339 11.2521 14.7672 12.5159C14.0684 12.7115 13.8477 13.3709 14.386 13.8346C15.172 14.518 16.1332 14.9964 17.1748 15.2228C17.4561 15.2828 17.7331 15.3597 18.0041 15.4531C18.6915 15.6449 19.4039 15.7458 20.1207 15.7528C23.0675 15.7588 25.991 16.2466 28.7612 17.1945C29.4501 17.4312 30.0988 17.103 30.1255 16.409Z" fill="#ED1C24"/>
<path d="M28.9618 10.7112C28.2224 9.16112 27.1524 7.77142 25.8185 6.62883C25.1497 6.12811 24.3307 5.8389 23.4778 5.80226C20.0902 5.77573 16.7381 6.45436 13.6603 7.78982C12.9915 8.07691 12.3495 8.89086 12.3629 9.57862C12.37 10.0803 12.4476 10.5789 12.5936 11.0614C12.7875 11.7239 13.6302 12.0079 14.3257 11.8091C18.8147 10.4523 23.6228 10.3428 28.176 11.4936C28.8848 11.6955 29.2627 11.339 28.9618 10.7112Z" fill="#ED1C24"/>
<path d="M21.0904 26.9115C21.0436 26.9556 21.0001 27.003 20.9567 27.0471C20.4551 27.5456 20.5487 27.7507 21.2375 27.5267C21.7282 27.3702 22.2084 27.1858 22.6754 26.9746C23.3442 26.6749 23.401 26.2647 22.8627 26.1354C22.3243 26.006 21.5753 26.4004 21.0904 26.9115Z" fill="#ED1C24"/>
<path d="M22.5918 4.61924C21.7581 4.24929 20.8849 3.96477 19.9869 3.77059C19.7762 3.72327 19.5656 3.69803 19.3549 3.66332C18.1692 3.52626 16.9666 3.71323 15.8902 4.20201C14.8138 4.69079 13.9087 5.46084 13.2825 6.42066C12.9013 7.00747 13.2423 7.2914 13.9111 7.01693C16.6108 5.92389 19.502 5.31308 22.4379 5.21551C23.1669 5.19027 23.2538 4.91265 22.5918 4.61924Z" fill="#ED1C24"/>
<path d="M20.843 9.02337C20.8029 9.1748 20.843 9.33885 20.7895 9.48713C20.7225 9.62932 20.6383 9.76376 20.5387 9.88779C20.4351 10.0077 20.2512 10.0518 20.1241 10.1433C19.997 10.2348 19.9268 10.4273 19.7897 10.4935C19.6526 10.5598 19.4553 10.4935 19.2848 10.5188C19.1142 10.544 18.9771 10.6639 18.8133 10.6607C18.6508 10.6456 18.4904 10.6138 18.3351 10.5661C18.1741 10.534 18.018 10.4831 17.8703 10.4147C17.7281 10.3424 17.5946 10.2557 17.4724 10.156C17.3453 10.0613 17.138 10.0235 17.0477 9.90357C16.973 9.76457 16.9136 9.61867 16.8705 9.4682C16.7843 9.33601 16.7136 9.1953 16.6599 9.0486C16.6234 8.89751 16.6054 8.74296 16.6064 8.588C16.6197 8.43377 16.6511 8.28141 16.7 8.1337C16.7443 7.98723 16.8072 7.84635 16.8872 7.7141C16.9444 7.57147 17.0196 7.43588 17.1113 7.31028C17.1977 7.17495 17.2998 7.04904 17.4156 6.93485C17.5583 6.85308 17.7096 6.78542 17.867 6.73294C18.0093 6.65051 18.1607 6.58281 18.3184 6.53103C18.4756 6.49948 18.6528 6.59097 18.8166 6.59097C18.9805 6.59097 19.151 6.50264 19.3115 6.53734C19.4694 6.5873 19.6217 6.65175 19.7663 6.72979C19.9134 6.79919 20.0071 6.94432 20.1308 7.04527C20.2545 7.14623 20.4317 7.19355 20.532 7.31344C20.6298 7.4369 20.7128 7.57022 20.7795 7.71095C20.8658 7.84423 20.9364 7.98598 20.9901 8.1337C21.0067 8.29 21.0067 8.44747 20.9901 8.60377C20.9567 8.74807 20.9074 8.88869 20.843 9.02337Z" fill="white"/>
<path d="M16.0879 20.7279C15.9254 20.6437 15.7508 20.5821 15.5696 20.5449C15.2918 20.4843 15.0041 20.4762 14.7229 20.5211C14.4418 20.566 14.1729 20.6629 13.9317 20.8063C13.6904 20.9498 13.4817 21.1368 13.3175 21.3567C13.1532 21.5766 13.0368 21.825 12.9748 22.0876C12.9286 22.2746 12.9117 22.467 12.9246 22.6586C12.9447 22.9741 13.3694 22.747 13.8977 22.2737C14.3015 21.9089 14.7672 21.6103 15.2754 21.3904C15.9408 21.0938 16.3588 20.8667 16.0879 20.7279Z" fill="#ED1C24"/>
<path d="M13.9345 24.2613C14.1396 24.3847 14.3659 24.4733 14.6032 24.5232C14.9415 24.5978 15.2938 24.5942 15.6302 24.5128C15.9666 24.4314 16.2773 24.2745 16.5356 24.0555C16.794 23.8365 16.9925 23.5619 17.1143 23.255C17.236 22.948 17.2774 22.6179 17.2349 22.2927C17.1814 21.9078 16.4089 21.6365 15.7301 21.8857C15.1632 22.0971 14.6503 22.4197 14.2254 22.8322C13.7138 23.3212 13.6001 24.0594 13.9345 24.2613Z" fill="#ED1C24"/>
</svg>
