<svg width="11" height="17" viewBox="0 0 11 17" fill="none" xmlns="http://www.w3.org/2000/svg">
<path d="M10 5.69565C10 8.29078 5.5 15.4 5.5 15.4C5.5 15.4 1 8.29078 1 5.69565C1 4.45029 1.47411 3.25593 2.31802 2.37532C3.16193 1.49472 4.30653 1 5.5 1C6.69347 1 7.83807 1.49472 8.68198 2.37532C9.52589 3.25593 10 4.45029 10 5.69565Z" stroke="#FC6C1B" stroke-width="2" stroke-linecap="round" stroke-linejoin="round"/>
<path d="M5.50013 7.57392C6.49425 7.57392 7.30013 6.73299 7.30013 5.69566C7.30013 4.65832 6.49425 3.8174 5.50013 3.8174C4.50602 3.8174 3.70013 4.65832 3.70013 5.69566C3.70013 6.73299 4.50602 7.57392 5.50013 7.57392Z" stroke="#FC6C1B" stroke-width="2" stroke-linecap="round" stroke-linejoin="round"/>
</svg>
