<svg width="91" height="59" viewBox="0 0 91 59" fill="none" xmlns="http://www.w3.org/2000/svg">
<path d="M12.9809 58.8926H12.7233L12.5392 58.4632C12.4779 58.3191 12.4165 58.1749 12.3582 58.0307H11.6742L11.4902 58.4632L11.3092 58.8926H11.0424C11.2019 58.5123 11.3491 58.1319 11.5239 57.7547C11.6988 57.3774 11.8307 56.997 12.0055 56.6167C12.1681 56.997 12.3122 57.3774 12.4871 57.7547C12.6619 58.1319 12.8183 58.5184 12.9809 58.8926ZM12.0423 57.2915L12.0147 57.1903C11.9865 57.295 11.9507 57.3976 11.9073 57.497C11.8613 57.5952 11.8215 57.6933 11.7785 57.8037H12.2509C12.2171 57.7209 12.1803 57.6381 12.1466 57.5584C12.1129 57.4786 12.0791 57.3804 12.0423 57.2976V57.2915Z" fill="#333333"/>
<path d="M16.4899 58.8926V56.7148H16.7476V58.6473H17.8733V58.8926H16.4899Z" fill="#333333"/>
<path d="M24.2319 56.721H24.4895L24.008 57.862L23.5233 59L22.9743 57.7025C22.9706 57.6837 22.9655 57.6653 22.9589 57.6473C22.958 57.6299 22.958 57.6125 22.9589 57.5952C22.9272 57.7146 22.8893 57.8324 22.8455 57.9479C22.7994 58.0675 22.7504 58.1841 22.6952 58.3037C22.6399 58.4233 22.5878 58.5399 22.5326 58.6565C22.4774 58.773 22.4283 58.8865 22.3792 59C22.2166 58.6197 22.0725 58.2393 21.8976 57.862C21.7228 57.4847 21.5909 57.1044 21.4161 56.721H21.6737C21.7872 56.994 21.9007 57.2608 22.0111 57.5216L22.3516 58.3252L22.3792 58.4264C22.4043 58.3326 22.4351 58.2404 22.4712 58.1504C22.508 58.0553 22.5449 57.9632 22.5878 57.8712C22.6307 57.7792 22.6675 57.6872 22.7105 57.5952C22.7534 57.5031 22.7933 57.4142 22.8301 57.3252C22.7902 57.224 22.7473 57.1228 22.7044 57.0185C22.6614 56.9142 22.6154 56.8161 22.5755 56.7118H22.8332C22.9477 56.9858 23.0612 57.2526 23.1737 57.5123C23.2841 57.7792 23.3976 58.0461 23.5111 58.316L23.5387 58.4172L23.5693 58.316C23.6828 58.0461 23.7963 57.7792 23.9067 57.5123C24.0172 57.2455 24.1153 56.994 24.2319 56.721Z" fill="#333333"/>
<path d="M29.9095 58.8926H29.6518C29.5905 58.7515 29.5291 58.6074 29.4709 58.4632L29.2868 58.0307H28.6028L28.4218 58.4632L28.2378 58.8926H27.9801C28.1427 58.5123 28.2869 58.1319 28.4617 57.7547L28.9463 56.6167C29.1058 56.997 29.2531 57.3774 29.4279 57.7547C29.6027 58.1319 29.753 58.5184 29.9095 58.8926ZM28.9739 57.2915L28.9463 57.1903C28.9157 57.2946 28.8788 57.3971 28.8359 57.497C28.793 57.5952 28.75 57.6933 28.7102 57.8037H29.1825C29.1457 57.7209 29.112 57.6381 29.0782 57.5584L28.9739 57.2915Z" fill="#333333"/>
<path d="M34.354 58.0614V58.8926H34.0473V58.0553L33.6516 57.3835L33.2559 56.7148H33.5627L33.8694 57.2179L34.1761 57.7209C34.1774 57.7373 34.1774 57.7537 34.1761 57.77L34.1945 57.8191L34.216 57.77L34.2344 57.7209L34.5411 57.2179L34.8479 56.7148H35.1546L34.762 57.3866L34.354 58.0614Z" fill="#333333"/>
<path d="M39.7004 56.9357L39.6268 57.0308L39.5532 57.1228L39.4888 57.0706C39.4604 57.0487 39.4295 57.0302 39.3967 57.0154C39.3593 56.9975 39.3203 56.9831 39.2802 56.9725C39.2361 56.961 39.1907 56.9558 39.1452 56.9572C39.096 56.9533 39.0466 56.9604 39.0004 56.9779C38.9543 56.9954 38.9126 57.0229 38.8784 57.0584C38.8199 57.1255 38.7883 57.2117 38.7894 57.3007C38.789 57.3465 38.7995 57.3917 38.8201 57.4326C38.8397 57.4669 38.8657 57.4971 38.8968 57.5215C38.9315 57.5447 38.9685 57.5642 39.0072 57.5798L39.1329 57.6289C39.2004 57.6534 39.274 57.681 39.3538 57.7179C39.4323 57.7518 39.5065 57.795 39.5746 57.8467C39.6431 57.8997 39.6995 57.9666 39.7403 58.043C39.7876 58.1271 39.8109 58.2226 39.8078 58.3191C39.8091 58.4019 39.7929 58.4842 39.7601 58.5603C39.7273 58.6365 39.6787 58.7048 39.6176 58.7607C39.5564 58.8144 39.4856 58.856 39.409 58.8834C39.3293 58.9121 39.2452 58.9266 39.1605 58.9264C39.0827 58.9261 39.0052 58.9148 38.9305 58.8926C38.8592 58.8725 38.7903 58.8448 38.725 58.8098C38.6672 58.7759 38.6118 58.738 38.5594 58.6963C38.5159 58.6599 38.4777 58.6175 38.4459 58.5706L38.6084 58.408C38.6371 58.4417 38.6689 58.4725 38.7035 58.5C38.7413 58.5338 38.7824 58.5636 38.8262 58.589C38.8699 58.6172 38.9174 58.6389 38.9673 58.6534C39.0215 58.6722 39.0786 58.6815 39.136 58.681C39.1891 58.6808 39.2419 58.6725 39.2924 58.6565C39.3408 58.6423 39.3857 58.6183 39.4243 58.5859C39.4637 58.556 39.4953 58.5171 39.5164 58.4724C39.539 58.4234 39.5506 58.37 39.5501 58.316C39.5528 58.2435 39.5312 58.1723 39.4888 58.1135C39.4487 58.0613 39.3986 58.0175 39.3415 57.9847C39.2818 57.9515 39.2192 57.9237 39.1544 57.9019C39.09 57.8804 39.0348 57.862 38.9857 57.8405C38.9408 57.8235 38.8967 57.804 38.8538 57.7823C38.7998 57.7564 38.7501 57.7223 38.7066 57.681C38.6554 57.6367 38.6136 57.5824 38.5839 57.5215C38.5501 57.4495 38.5324 57.371 38.5317 57.2915C38.5304 57.222 38.5397 57.1527 38.5594 57.086C38.5832 57.0124 38.6231 56.9451 38.6761 56.8889C38.7292 56.8327 38.7941 56.7889 38.8661 56.7608C38.9576 56.724 39.0558 56.7063 39.1544 56.7087C39.2423 56.7096 39.3294 56.7251 39.4121 56.7547C39.5186 56.7966 39.6164 56.858 39.7004 56.9357Z" fill="#333333"/>
<path d="M47.4239 58.8926V56.7148H48.7705V56.9602H47.6877V57.6749H48.6478V57.9203H47.6877V58.8926H47.4239Z" fill="#333333"/>
<path d="M52.3286 58.8926V56.7148H52.8439C52.9226 56.7168 53.0009 56.7281 53.077 56.7486C53.1625 56.7712 53.2441 56.8063 53.3193 56.8529C53.3931 56.9004 53.4559 56.9631 53.5033 57.0369C53.5564 57.1167 53.5832 57.2111 53.58 57.3068C53.5847 57.4459 53.5438 57.5827 53.4635 57.6964C53.38 57.806 53.2585 57.8804 53.123 57.905L53.5892 58.8926H53.3101L52.8531 57.9234H52.5862V58.8926H52.3286ZM52.5862 57.6657H52.8592C52.9355 57.6681 53.0116 57.6556 53.0831 57.6289C53.1359 57.6095 53.184 57.5792 53.2242 57.54C53.259 57.508 53.2854 57.468 53.3009 57.4234C53.3135 57.3826 53.3207 57.3403 53.3224 57.2976C53.3221 57.2512 53.3094 57.2056 53.2856 57.1657C53.2616 57.1229 53.2293 57.0854 53.1905 57.0553C53.1466 57.0208 53.0967 56.9948 53.0432 56.9786C52.9847 56.9601 52.9237 56.9507 52.8623 56.951H52.5862V57.6657Z" fill="#333333"/>
<path d="M57.0891 58.8926V56.7148H58.4325V56.9602H57.359V57.6749H58.3221V57.9203H57.359V58.6473H58.4877V58.8926H57.0891Z" fill="#333333"/>
<path d="M63.2544 56.9357L63.1807 57.0308C63.1562 57.0614 63.1347 57.0921 63.1071 57.1228C63.0874 57.1034 63.0658 57.0859 63.0427 57.0707C63.0143 57.0487 62.9834 57.0302 62.9507 57.0154C62.9144 56.9974 62.8764 56.983 62.8372 56.9725C62.7921 56.961 62.7457 56.9559 62.6992 56.9572C62.65 56.9533 62.6005 56.9604 62.5544 56.9779C62.5083 56.9954 62.4666 57.0229 62.4323 57.0584C62.375 57.1259 62.3444 57.2121 62.3464 57.3007C62.3451 57.3462 62.3545 57.3914 62.374 57.4326C62.3945 57.4672 62.4216 57.4974 62.4538 57.5215C62.4871 57.5452 62.5231 57.5648 62.5611 57.5798L62.6869 57.6289C62.7621 57.6543 62.8359 57.684 62.9077 57.7179C62.9866 57.7511 63.0608 57.7944 63.1286 57.8467C63.1973 57.9003 63.2546 57.967 63.2973 58.043C63.3423 58.1279 63.3645 58.223 63.3617 58.3191C63.3632 58.4054 63.3465 58.4911 63.3126 58.5706C63.2416 58.7142 63.1172 58.8242 62.966 58.8773C62.8852 58.9057 62.8002 58.9202 62.7145 58.9202C62.6366 58.9196 62.5592 58.9082 62.4845 58.8865C62.4134 58.8658 62.3445 58.8381 62.2789 58.8037C62.2211 58.7698 62.1658 58.7319 62.1133 58.6902C62.0698 58.6537 62.0316 58.6114 61.9998 58.5644L62.1624 58.4019C62.1918 58.4348 62.2236 58.4655 62.2575 58.4939C62.2963 58.5262 62.3373 58.556 62.3802 58.5828C62.4241 58.6104 62.4716 58.6321 62.5213 58.6473C62.5756 58.6658 62.6326 58.6752 62.69 58.6749C62.7431 58.6747 62.7958 58.6664 62.8464 58.6503C62.895 58.6368 62.94 58.6127 62.9783 58.5798C63.0192 58.5515 63.0511 58.5121 63.0703 58.4663C63.0944 58.4178 63.106 58.364 63.1041 58.3099C63.1083 58.2372 63.0865 58.1655 63.0427 58.1074C63.0027 58.0551 62.9526 58.0113 62.8955 57.9786C62.836 57.9448 62.7734 57.917 62.7084 57.8958C62.6521 57.8783 62.5968 57.8579 62.5427 57.8344C62.4967 57.8174 62.4517 57.798 62.4078 57.7761C62.3537 57.7503 62.304 57.7161 62.2605 57.6749C62.2112 57.6296 62.1706 57.5755 62.1409 57.5154C62.1047 57.4441 62.0858 57.3653 62.0857 57.2854C62.0854 57.2157 62.0957 57.1464 62.1164 57.0799C62.1371 57.0113 62.1716 56.9476 62.2176 56.8927C62.2706 56.8339 62.3354 56.7869 62.4078 56.7547C62.4994 56.7181 62.5975 56.7004 62.6961 56.7026C62.7849 56.7037 62.873 56.7193 62.9568 56.7486C63.0671 56.7913 63.1681 56.8548 63.2544 56.9357Z" fill="#333333"/>
<path d="M66.9628 58.8926V56.7148H67.2204V57.6749H68.4013V56.7148H68.659V58.8926H68.4013V57.9203H67.2235V58.8926H66.9628Z" fill="#333333"/>
<path d="M52.9666 46.1111V45.9669H50.163C49.1263 45.9669 48.5373 45.3749 48.5373 44.4885C48.5373 43.602 49.1263 43.01 50.163 43.01H55.9204C56.9571 43.01 57.5461 43.602 57.5461 44.4885C57.5346 45.0362 57.3254 45.5613 56.9571 45.9669L53.2764 50.2612V50.4084H56.083C57.1166 50.4084 57.7056 50.9973 57.7056 51.8869C57.7056 52.7764 57.1166 53.3623 56.083 53.3623H50.0127C48.979 53.3623 48.3901 52.7703 48.3901 51.8869C48.4004 51.3389 48.6098 50.8134 48.979 50.4084L52.9666 46.1111Z" fill="#333333"/>
<path d="M61.9047 45.9669V46.8503H64.7206C65.607 46.8503 66.1959 47.4423 66.1959 48.1815C66.1959 48.9208 65.607 49.5097 64.7206 49.5097H61.9139V50.3962H66.0395C67.0732 50.3962 67.6652 50.9851 67.6652 51.8746C67.6652 52.7641 67.0732 53.35 66.0395 53.35H60.2791C59.2454 53.35 58.6534 52.758 58.6534 51.8746V44.4762C58.6534 43.5898 59.2454 42.9978 60.2791 42.9978H65.8923C66.926 42.9978 67.5149 43.5898 67.5149 44.4762C67.5149 45.3627 66.926 45.9547 65.8923 45.9547L61.9047 45.9669Z" fill="#333333"/>
<path d="M72.0208 48.6232V52.0188C72.0208 52.9083 71.4319 53.4972 70.3982 53.4972C69.3645 53.4972 68.7725 52.9083 68.7725 52.0188V44.3505C68.7725 43.4763 69.3614 42.872 70.3982 42.872C71.2816 42.872 71.8 43.3904 72.4656 44.3505L74.9746 47.746H75.1219V44.3413C75.1219 43.4548 75.7139 42.8628 76.7476 42.8628C77.7813 42.8628 78.3732 43.4548 78.3732 44.3413V52.0096C78.3732 52.8838 77.7813 53.488 76.7476 53.488C75.8611 53.488 75.3427 52.9727 74.6802 52.0096L72.168 48.614L72.0208 48.6232Z" fill="#333333"/>
<path d="M1.55514 46.1111C1.55514 44.191 3.03052 42.7156 5.98435 42.7156C8.57011 42.7156 10.0486 44.191 10.0486 45.2246C10.0486 46.0375 9.53018 46.5559 8.42288 46.5559C7.24196 46.5559 7.09473 45.5222 5.98435 45.5222C5.2482 45.5222 4.95067 45.8289 4.95067 46.1111C4.95067 47.1479 10.4166 46.7031 10.4166 50.0986C10.4166 52.0157 8.79096 53.6414 5.54266 53.6414C2.80967 53.6414 1.33429 52.166 1.33429 51.1323C1.33429 50.3195 1.8496 49.8011 2.9569 49.8011C4.14089 49.8011 4.28812 50.8348 5.54266 50.8348C6.64996 50.8348 7.01804 50.4667 7.01804 50.0986C7.01804 49.2152 1.55514 49.6569 1.55514 46.1111Z" fill="#ED1C24"/>
<path d="M11.5976 49.3625V44.3413C11.5976 43.4548 12.1896 42.8628 13.2232 42.8628C14.2569 42.8628 14.8489 43.4548 14.8489 44.3413V49.3625C14.8489 50.3962 15.4379 50.9851 16.3243 50.9851C17.2108 50.9851 17.7905 50.3962 17.7905 49.3625V44.3413C17.7905 43.4548 18.3794 42.8628 19.4131 42.8628C20.4468 42.8628 21.0388 43.4548 21.0388 44.3413V49.3625C21.0388 51.8746 19.2659 53.6567 16.312 53.6567C13.3582 53.6567 11.5976 51.8746 11.5976 49.3625Z" fill="#ED1C24"/>
<path d="M22.4559 46.1111C22.4559 44.191 23.9313 42.7156 26.8851 42.7156C29.4709 42.7156 30.9462 44.191 30.9462 45.2246C30.9462 46.0375 30.4309 46.5559 29.3236 46.5559C28.1427 46.5559 27.9924 45.5222 26.8851 45.5222C26.1459 45.5222 25.8514 45.8289 25.8514 46.1111C25.8514 47.1479 31.3174 46.7031 31.3174 50.0986C31.3174 52.0157 29.6917 53.6414 26.4434 53.6414C23.7104 53.6414 22.232 52.166 22.232 51.1323C22.232 50.3195 22.7503 49.8011 23.8576 49.8011C25.0386 49.8011 25.1889 50.8348 26.4434 50.8348C27.5507 50.8348 27.9188 50.4667 27.9188 50.0986C27.9126 49.2152 22.4559 49.6569 22.4559 46.1111Z" fill="#ED1C24"/>
<path d="M35.7466 46.8503H38.7005V44.3413C38.7005 43.4548 39.2924 42.8628 40.3261 42.8628C41.3598 42.8628 41.9487 43.4548 41.9487 44.3413V52.0096C41.9487 52.8991 41.3598 53.488 40.3261 53.488C39.2924 53.488 38.7005 52.8991 38.7005 52.0096V49.6477H35.7466V52.0096C35.7466 52.8991 35.1577 53.488 34.124 53.488C33.0903 53.488 32.4983 52.8991 32.4983 52.0096V44.3413C32.4983 43.4548 33.0872 42.8628 34.124 42.8628C35.1608 42.8628 35.7466 43.4548 35.7466 44.3413V46.8503Z" fill="#ED1C24"/>
<path d="M47.1202 52.0188C47.1202 52.9083 46.5313 53.4972 45.4976 53.4972C44.4639 53.4972 43.8719 52.9083 43.8719 52.0188V44.3505C43.8719 43.464 44.4609 42.872 45.4976 42.872C46.5344 42.872 47.1202 43.464 47.1202 44.3505V52.0188Z" fill="#ED1C24"/>
<path d="M31.4217 26.1765C31.115 27.517 30.3911 28.6304 29.7745 29.7991C29.158 30.9677 28.5813 32.2069 27.6765 33.1731C26.7716 34.1393 25.5876 34.7957 24.4527 35.5043C23.3553 36.245 22.1652 36.838 20.913 37.268C19.6432 37.6545 18.3579 38.0318 17.0022 38.0778C15.6464 38.1238 14.306 38.1882 12.9656 37.8784C11.6252 37.5686 10.4289 36.8631 9.2848 36.2496C8.08241 35.6116 6.80027 35.0411 5.83099 34.1363C4.82374 33.2123 3.93926 32.1629 3.19923 31.0137C2.49068 29.8819 2.35571 28.4402 1.9723 27.155C1.58888 25.8698 0.895666 24.6214 0.849656 23.2657C0.803647 21.9099 1.25148 20.6155 1.56128 19.2781C1.82998 17.9629 2.26926 16.6884 2.86796 15.4869C3.50596 14.2876 4.14396 13.0331 5.05189 12.0699C6.00254 11.096 7.0747 10.2485 8.24191 9.54858C9.37375 8.84003 10.7111 8.48422 11.9994 8.0916C13.2772 7.66766 14.6058 7.41596 15.9501 7.34318C17.2629 7.30023 18.5573 7.64991 19.8977 7.95664C21.2382 8.26337 22.5418 8.54557 23.6982 9.1621C24.9006 9.79704 25.8023 10.7908 26.7655 11.6957C27.7286 12.6006 28.7224 13.4962 29.4463 14.625C30.1398 15.7646 30.6821 16.9895 31.0597 18.269C31.4493 19.5389 31.9983 20.8241 32.0444 22.1829C32.0781 23.4926 31.7315 24.8453 31.4217 26.1765Z" fill="#333333"/>
<path d="M14.3582 34.4215C14.7109 34.4645 15.0452 34.6546 15.3888 34.6332C15.7417 34.6117 16.0919 34.5573 16.4347 34.4706C16.7721 34.3878 17.0053 34.0289 17.3212 33.8847C17.6505 33.7858 17.9698 33.6564 18.2751 33.4983C18.5362 33.2739 18.7755 33.0253 18.9898 32.756C19.2321 32.5075 19.6033 32.3725 19.7935 32.0812C20.0294 31.8133 20.2409 31.5248 20.4253 31.2192C20.5634 30.9125 20.5082 30.5045 20.5879 30.1579C20.7086 29.7991 20.7939 29.4292 20.8425 29.0537C20.8703 28.6734 20.861 28.2912 20.8149 27.9127C20.7505 27.5415 20.3394 27.2716 20.2014 26.925C20.0634 26.5784 20.0941 26.1612 19.8947 25.8422C19.6953 25.5232 19.6217 25.0785 19.3671 24.8055C19.1125 24.5325 18.6125 24.4987 18.3058 24.2963C18.0111 24.0736 17.6946 23.8815 17.3611 23.7227C17.0111 23.6044 16.6506 23.5202 16.2844 23.4712C15.9417 23.3415 15.6094 23.1856 15.2906 23.0049C14.9689 22.832 14.6612 22.634 14.3704 22.4129C14.049 22.2488 13.7412 22.0591 13.4502 21.8455C13.1711 21.6124 13.0392 21.2566 12.803 20.9805C12.5546 20.7283 12.3269 20.4564 12.1221 20.1677C11.9194 19.8749 11.7389 19.5673 11.5822 19.2475C11.4826 18.9039 11.4098 18.5532 11.3645 18.1984C11.2755 17.8518 10.8829 17.5574 10.8491 17.1924C10.8512 16.8245 10.882 16.4573 10.9412 16.0943C10.9657 15.7384 10.8491 15.3366 10.9412 14.9777C11.0332 14.6189 11.3829 14.4164 11.4994 14.1097C11.6448 13.822 11.8108 13.5452 11.9963 13.2815C12.1107 12.978 12.246 12.6829 12.4012 12.3981C12.6006 12.1374 12.6681 11.7448 12.9012 11.5178C13.1343 11.2908 13.3644 11.3092 13.6251 11.116C13.2877 11.1927 13.1036 11.1773 12.7754 11.2816C12.4472 11.3859 12.0975 11.4503 11.7816 11.5884C11.4657 11.7264 11.2203 12.0147 10.9166 12.1742C10.613 12.3337 10.2602 12.4135 9.97189 12.6006C9.68356 12.7877 9.50872 13.1159 9.23266 13.3245C8.9566 13.533 8.49957 13.5177 8.24192 13.7508C7.98426 13.9839 7.79409 14.2907 7.56097 14.5453C7.32785 14.7998 7.17449 15.1188 6.96284 15.3949C6.7512 15.671 6.51195 15.9163 6.32484 16.2077C6.13773 16.4991 6.01811 16.8212 5.86167 17.1279C5.70524 17.4347 5.45679 17.6985 5.32182 18.0175C5.18686 18.3365 4.95681 18.6309 4.85252 18.9561C4.74823 19.2812 4.77584 19.6554 4.69916 19.9959C4.62247 20.3364 4.69916 20.7106 4.65008 21.0541C4.601 21.3977 4.29427 21.7351 4.2636 22.0847C4.23292 22.4344 4.57033 22.7902 4.5918 23.1399C4.61327 23.4896 4.4323 23.8515 4.47524 24.1951C4.51819 24.5386 4.52739 24.9036 4.601 25.2472C4.67462 25.5907 4.66848 25.968 4.76971 26.2992C4.87093 26.6305 5.07644 26.9495 5.20833 27.2747C5.34023 27.5998 5.49973 27.9127 5.65923 28.2194C5.81873 28.5261 6.18374 28.7255 6.36778 29.023C6.55182 29.3206 6.74813 29.5997 6.95671 29.8788C7.16529 30.1579 7.19596 30.5904 7.42908 30.8512C7.66219 31.1119 8.08548 31.1855 8.34927 31.4247C8.61306 31.664 8.73882 32.0382 9.01795 32.256C9.29708 32.4738 9.69276 32.5044 9.98723 32.6977C10.2817 32.8909 10.4903 33.213 10.8001 33.3786C11.1099 33.5443 11.3798 33.8111 11.7019 33.9461C12.0239 34.081 12.3828 34.1516 12.7202 34.2528C13.0576 34.354 13.4318 34.305 13.7754 34.3847C13.9625 34.4491 14.1649 34.3878 14.3582 34.4215Z" fill="white"/>
<path d="M21.9436 29.4463C21.9183 29.7801 21.8671 30.1113 21.7903 30.4371C21.7504 30.6119 21.7044 30.7806 21.6492 30.9462C21.5602 31.2223 22.0019 31.5597 22.6461 31.7315L22.7933 31.7744C23.149 31.8651 23.521 31.8719 23.8798 31.7942C24.2386 31.7165 24.5744 31.5564 24.8607 31.3266C25.0846 31.1088 25.2993 30.8849 25.5048 30.6487C25.6079 30.5471 25.6818 30.4196 25.719 30.2797C25.7561 30.1398 25.755 29.9925 25.7159 29.8531C25.6767 29.7137 25.6009 29.5874 25.4964 29.4873C25.3918 29.3871 25.2623 29.3168 25.1214 29.2838C24.4558 29.0537 23.7902 28.8635 23.1338 28.704C22.4773 28.5445 21.9896 28.8911 21.9436 29.4463Z" fill="#ED1C24"/>
<path d="M27.4004 27.7378C27.5691 27.3667 27.7072 26.9863 27.8575 26.5937C27.9508 26.2736 27.9218 25.9303 27.7761 25.6304C27.6304 25.3305 27.3785 25.0955 27.0692 24.9711C25.0109 24.1939 22.8481 23.7287 20.6523 23.5908C19.9867 23.5479 19.8732 23.8975 20.3057 24.3914C20.7695 24.9353 21.1461 25.5479 21.4222 26.2072C21.5638 26.5396 21.7764 26.8371 22.045 27.0787C22.3136 27.3203 22.6318 27.5002 22.9773 27.6059C23.9026 27.814 24.8151 28.0751 25.7103 28.3881C26.0231 28.5016 26.3664 28.4983 26.6769 28.3789C26.9875 28.2594 27.2444 28.0317 27.4004 27.7378Z" fill="#ED1C24"/>
<path d="M28.474 23.3117C28.5134 22.5267 28.4754 21.7397 28.3605 20.9621C28.2784 20.6084 28.1071 20.2818 27.8627 20.0132C27.6184 19.7447 27.3092 19.5434 26.9649 19.4284C22.8487 18.2654 18.4863 18.2994 14.3888 19.5266C13.7478 19.7168 13.5453 20.3578 14.0361 20.8087C14.7571 21.4732 15.6388 21.9383 16.5942 22.1584C16.8533 22.2167 17.1084 22.2915 17.358 22.3823C17.9865 22.5755 18.6391 22.6788 19.2966 22.689C21.9989 22.6957 24.6796 23.1711 27.2195 24.0938C27.8575 24.284 28.4402 23.965 28.474 23.3117Z" fill="#ED1C24"/>
<path d="M27.4096 17.7506C26.7303 16.2536 25.7535 14.9104 24.5386 13.803C23.9239 13.3183 23.1734 13.0374 22.3915 12.9993C19.285 12.9736 16.2111 13.6334 13.3889 14.9317C12.7754 15.2109 12.1865 16.0022 12.1957 16.6709C12.2029 17.1528 12.2699 17.6319 12.3951 18.0972C12.576 18.7383 13.349 19.0174 13.987 18.8211C18.1046 17.5006 22.5154 17.3941 26.6919 18.5144C27.3391 18.7107 27.6857 18.361 27.4096 17.7506Z" fill="#ED1C24"/>
<path d="M20.1861 33.5013L20.0665 33.6332C19.6064 34.1179 19.6922 34.3172 20.3241 34.1025C20.7741 33.9488 21.2145 33.7686 21.6431 33.5627C22.2565 33.2743 22.3087 32.8725 21.8148 32.7468C21.321 32.621 20.6339 33.0044 20.1861 33.5013Z" fill="#ED1C24"/>
<path d="M21.5664 11.8276C20.8015 11.4684 20.0005 11.1918 19.1769 11.0025C18.9837 10.9565 18.7904 10.9319 18.5972 10.8982C17.5091 10.7647 16.4055 10.9464 15.4175 11.4216C14.4296 11.8968 13.5988 12.6456 13.0239 13.579C12.6742 14.1496 12.9901 14.4256 13.6036 14.1618C16.0793 13.097 18.7319 12.5031 21.4253 12.4104C22.0847 12.3828 22.1706 12.1129 21.5664 11.8276Z" fill="#ED1C24"/>
<path d="M19.9591 16.1096C19.9253 16.2568 19.9775 16.4163 19.9131 16.5605C19.8505 16.6988 19.7723 16.8295 19.6799 16.95C19.5879 17.0666 19.4192 17.1095 19.3027 17.2016C19.1861 17.2936 19.1186 17.4746 18.9959 17.539C18.8732 17.6034 18.6892 17.539 18.5328 17.5635C18.3763 17.588 18.2536 17.7046 18.1033 17.7046C17.9531 17.6891 17.805 17.6573 17.6616 17.6095C17.5173 17.5756 17.3773 17.5252 17.2445 17.4592C17.11 17.3908 16.9844 17.3064 16.8703 17.2077C16.7537 17.1157 16.5635 17.0789 16.4777 16.9623C16.3918 16.8457 16.3826 16.6556 16.3182 16.5298C16.2378 16.403 16.173 16.2671 16.1249 16.1249C16.09 15.9772 16.0735 15.8258 16.0758 15.674C16.0881 15.5241 16.1169 15.376 16.1617 15.2323C16.2033 15.0907 16.2599 14.954 16.3304 14.8244C16.3857 14.6864 16.4556 14.5548 16.539 14.4318C16.6173 14.2995 16.711 14.177 16.8181 14.0668C16.9482 13.9864 17.0871 13.9216 17.2322 13.8735C17.361 13.7922 17.499 13.7263 17.6432 13.6772C17.7874 13.6435 17.95 13.7324 18.1003 13.7324C18.2506 13.7324 18.407 13.6465 18.5573 13.6833C18.7023 13.7301 18.8421 13.7918 18.9745 13.8674C19.1094 13.9349 19.1922 14.076 19.3088 14.1741C19.4254 14.2723 19.5818 14.3183 19.6738 14.4348C19.7635 14.5549 19.8396 14.6845 19.9008 14.8213C19.9817 14.951 20.0466 15.0901 20.094 15.2354C20.1056 15.3868 20.1005 15.5391 20.0787 15.6894C20.0541 15.8334 20.014 15.9743 19.9591 16.1096Z" fill="white"/>
<path d="M15.6004 27.4894C15.4505 27.4064 15.2908 27.3425 15.125 27.2992C14.8251 27.2285 14.5129 27.2287 14.2132 27.3C13.9135 27.3713 13.6345 27.5115 13.3986 27.7096C13.1626 27.9077 12.9762 28.1582 12.8542 28.4411C12.7322 28.7239 12.6779 29.0314 12.6957 29.339C12.7141 29.6457 13.1067 29.4249 13.5913 28.9648C13.9604 28.6105 14.3866 28.3212 14.852 28.109C15.4624 27.8452 15.8458 27.6274 15.6004 27.4894Z" fill="#ED1C24"/>
<path d="M13.6251 30.9248C13.8133 31.0445 14.0208 31.1306 14.2385 31.1794C14.4925 31.238 14.7555 31.246 15.0126 31.203C15.2697 31.16 15.5158 31.0667 15.7368 30.9286C15.9578 30.7904 16.1495 30.6101 16.3008 30.3979C16.4521 30.1856 16.5602 29.9457 16.6188 29.6917C16.6719 29.4698 16.6844 29.2402 16.6556 29.0138C16.6065 28.6365 15.8979 28.3728 15.2753 28.6151C14.7552 28.8206 14.2847 29.1342 13.895 29.5353C13.4134 30.0107 13.3183 30.7285 13.6251 30.9248Z" fill="#ED1C24"/>
<path d="M90.9002 36.2711L78.0205 36.3723L9.57619 0L8.8247 1.39563L72.3674 36.4184L0 36.9889V38.5747L77.407 39.1943L88.7469 45.4455L90.161 42.826L83.4221 39.2434L90.9002 39.3047V36.2711Z" fill="#333333"/>
</svg>
