
<svg 
xmlns="http://www.w3.org/2000/svg" 
viewBox="0 0 95.17 95.18">
<defs>
<style>.cls-1{fill:#FC6C1B;}.cls-2{fill:#fff;}</style>
</defs>
<g id="Слой_2" data-name="Слой 2">
<g id="Layer_1" data-name="Layer 1">
<path class="cls-1" d="M95.17,47.59A47.59,47.59,0,1,1,47.59,0,47.59,47.59,0,0,1,95.17,47.59Z"/>
<path class="cls-2" d="M47,60.88c1.08,1.7,2.69,1.7,5,0C53.67,65,61,78.61,61,78.61s-4.77,1.94-11.57-2.84C45,
72.68,36.25,63.39,31.05,50.36c-2.84-7.1-3.74-14.83-3.74-23.6.18-7.67,3.44-9.86,6.84-10.88l6.09,19.26S36,36.53,37.78,
42A44.4,44.4,0,0,0,47,60.88Z"/><path class="cls-2" d="M36.84,15.2a6.4,6.4,0,0,1,7.88,3.4c2.68,5.29,4.65,13.47-1.79,
16C41.13,29.69,36.84,15.2,36.84,15.2Z"/><path class="cls-2" d="M54.92,59.77l9.31,17.48s5.37-3.93,3.22-7.85-4.64-8.82-4.64-8.82S60.28,
56.73,54.92,59.77Z"/>
</g>
</g>
</svg>